<?xml version="1.0" standalone="no"?>
<!DOCTYPE svg PUBLIC "-//W3C//DTD SVG 20010904//EN"
 "http://www.w3.org/TR/2001/REC-SVG-20010904/DTD/svg10.dtd">
<svg version="1.0" xmlns="http://www.w3.org/2000/svg"
 width="1513.000000pt" height="1513.000000pt" viewBox="0 0 1513.000000 1513.000000"
 preserveAspectRatio="xMidYMid meet">
<metadata>
Created by potrace 1.14, written by Peter Selinger 2001-2017
</metadata>
<g transform="translate(0.000000,1513.000000) scale(0.100000,-0.100000)"
fill="#000000" stroke="none">
<path d="M10677 14967 c-82 -84 -178 -178 -215 -209 -37 -32 -78 -68 -92 -80
-76 -70 -320 -256 -465 -354 -74 -51 -417 -260 -530 -324 -16 -9 -83 -47 -148
-84 -482 -274 -1342 -721 -1737 -903 -112 -52 -791 -391 -975 -486 -394 -205
-467 -244 -775 -417 -181 -101 -184 -103 -360 -207 -228 -135 -396 -240 -602
-376 -181 -119 -197 -132 -183 -147 23 -26 19 -30 -31 -30 -40 0 -56 -8 -132
-62 -270 -194 -600 -463 -842 -687 -63 -58 -347 -340 -395 -393 -131 -141
-282 -317 -418 -488 -199 -247 -524 -731 -674 -1000 -11 -19 -45 -80 -75 -135
-138 -247 -319 -640 -433 -940 -53 -140 -161 -459 -169 -499 -3 -11 -11 -43
-20 -71 -16 -54 -65 -237 -71 -270 -4 -19 -25 -113 -45 -200 -20 -88 -57 -302
-75 -440 -2 -16 -6 -48 -9 -70 -3 -22 -8 -65 -11 -95 -3 -30 -7 -75 -10 -100
-27 -264 -27 -921 0 -1091 2 -13 6 -53 9 -89 3 -36 8 -76 10 -90 2 -14 7 -47
10 -75 3 -27 8 -61 10 -75 2 -14 8 -47 12 -75 4 -27 8 -57 10 -65 1 -8 6 -35
10 -60 4 -25 9 -52 10 -60 2 -8 6 -28 8 -45 9 -54 38 -197 61 -300 30 -136 47
-201 77 -305 16 -58 31 -112 33 -121 7 -38 102 -307 157 -444 103 -262 307
-656 443 -857 19 -29 41 -61 48 -72 7 -10 47 -66 91 -125 177 -239 416 -501
611 -669 55 -48 102 -89 105 -92 3 -3 37 -30 75 -61 460 -369 1047 -669 1665
-854 116 -34 324 -90 370 -99 14 -2 78 -16 142 -30 118 -25 379 -70 473 -81
28 -3 84 -10 125 -15 41 -5 101 -12 133 -15 31 -3 81 -7 110 -10 286 -26 1110
-26 1246 0 9 1 59 6 111 10 52 4 104 9 114 11 11 2 49 6 85 9 36 3 77 7 91 10
14 2 44 7 68 10 23 3 61 7 85 10 23 3 53 8 67 10 14 3 39 7 55 9 17 3 62 10
100 17 39 6 79 13 90 14 11 2 58 11 105 20 47 9 96 19 110 21 53 10 420 98
520 125 338 93 679 211 985 341 139 59 497 233 630 306 435 240 891 561 1265
891 145 127 176 157 366 346 327 326 595 644 887 1053 37 51 67 97 67 102 0 4
4 10 8 12 15 6 284 428 348 546 14 26 35 63 46 82 108 185 302 575 402 812 73
173 118 288 112 288 -2 0 -16 -21 -32 -47 -111 -192 -457 -685 -640 -913 -51
-62 -269 -326 -273 -330 -3 -3 -23 -25 -45 -50 -139 -162 -538 -571 -686 -706
-139 -125 -299 -262 -495 -423 -207 -169 -647 -471 -890 -611 -842 -486 -1561
-741 -2550 -905 -20 -4 -122 -18 -270 -39 -171 -24 -381 -45 -595 -61 -308
-22 -845 -22 -1040 0 -25 3 -79 7 -120 10 -75 6 -353 40 -400 50 -13 2 -40 7
-60 10 -52 8 -296 61 -365 79 -33 9 -71 19 -85 22 -14 3 -105 32 -202 65 -260
87 -498 194 -687 308 -46 28 -86 51 -88 51 -5 0 -134 90 -219 155 -214 160
-431 384 -593 610 -39 55 -74 105 -78 111 -34 47 -160 274 -197 355 -70 152
-84 187 -124 299 -53 150 -106 338 -127 448 -25 135 -26 618 -1 747 2 11 7 40
10 65 3 25 8 56 11 70 3 14 8 39 11 55 3 17 12 57 20 90 9 33 17 67 19 75 22
102 120 345 201 498 196 369 453 660 903 1020 80 64 148 119 151 122 37 40
669 480 715 499 6 2 36 21 68 43 32 21 61 38 64 38 3 0 17 8 31 19 49 34 446
262 754 434 26 15 83 46 125 70 43 25 94 53 113 64 567 321 1391 849 1855
1187 101 73 362 279 410 323 11 10 55 49 98 86 218 194 439 432 690 747 23 28
103 135 117 156 8 12 40 57 70 100 195 277 419 672 564 997 14 31 37 81 50
110 35 76 112 273 168 427 26 74 46 122 44 105 -3 -16 -8 -52 -11 -80 -44
-370 -169 -924 -285 -1260 -17 -49 -33 -97 -35 -105 -7 -27 -111 -292 -160
-405 -111 -259 -297 -603 -453 -840 -159 -239 -275 -390 -485 -630 -153 -175
-513 -519 -732 -700 -33 -27 -62 -52 -65 -55 -14 -15 -275 -218 -425 -329
-224 -167 -364 -266 -825 -583 -434 -298 -508 -349 -681 -473 -46 -33 -149
-109 -229 -169 -128 -96 -181 -139 -368 -293 -82 -68 -178 -158 -304 -284
-423 -426 -654 -834 -747 -1319 -26 -140 -34 -229 -35 -385 -1 -260 27 -391
132 -604 47 -97 150 -259 179 -283 10 -7 14 -8 10 -1 -8 13 -24 93 -35 168
-14 104 -5 416 13 445 2 3 6 19 9 34 6 32 24 92 36 121 72 169 128 255 234
361 187 185 445 308 854 404 70 16 145 32 167 36 22 3 69 12 105 19 36 8 92
17 125 20 33 4 63 9 66 11 3 1 28 6 55 9 27 4 76 10 109 15 73 11 99 15 320
45 17 2 71 9 120 15 50 6 101 13 115 15 32 5 253 35 305 41 22 3 63 9 90 14
28 5 70 12 95 15 25 3 56 7 70 9 14 3 82 14 152 26 69 11 137 23 149 25 13 3
41 7 63 11 22 3 43 7 46 9 3 2 26 6 50 10 25 3 87 15 139 26 51 12 101 22 110
24 9 2 57 13 106 25 50 12 101 24 115 26 14 3 32 7 40 10 8 3 25 8 38 10 58
11 371 101 502 145 52 17 100 32 105 33 6 1 15 4 20 7 6 4 35 14 65 24 53 17
299 111 364 139 247 106 548 253 680 331 42 25 79 45 81 45 4 0 49 26 130 77
11 7 47 29 80 48 107 63 399 259 465 312 8 6 71 55 140 109 197 153 320 263
531 474 166 165 244 251 402 440 102 122 258 343 412 585 62 97 184 322 250
460 37 77 73 152 81 167 8 14 14 33 14 41 0 9 3 17 8 19 27 12 262 687 288
828 3 14 8 34 11 45 4 11 8 25 9 31 1 6 11 49 22 95 18 72 33 148 57 284 2 17
7 39 9 51 2 12 7 45 11 74 4 29 8 61 10 71 2 10 7 49 10 86 4 37 9 76 11 86
25 134 24 884 -1 1016 -1 9 -6 49 -10 88 -4 40 -8 78 -9 85 -2 7 -6 36 -10 63
-4 28 -11 73 -16 100 -5 28 -12 64 -15 80 -52 322 -177 726 -350 1130 -35 82
-175 357 -231 455 -33 55 -63 109 -69 118 -300 520 -818 1113 -1360 1557 -190
156 -541 408 -564 404 -3 -1 -73 -69 -154 -152z"/>
</g>
</svg>
