<svg width="1440" height="728" viewBox="0 0 1440 728" fill="none" xmlns="http://www.w3.org/2000/svg">
<g filter="url(#filter0_b_1_2321)">
<rect x="-34" y="38" width="1485" height="690" fill="#A8E34B"/>
</g>
<path d="M1466.09 146.99L1446.36 140.133C1449.02 140.027 1451.46 139.92 1453.75 139.814V1.40264C1448.16 1.98733 1441.78 2.3062 1435.77 1.93413C1420.46 0.977366 1414.5 -1.89292 1396.04 1.93413C1377.54 5.76117 1363.98 10.0134 1352.12 9.32245C1327.76 7.88731 1323.66 11.5549 1312.39 12.1396C1297.81 12.8837 1288.4 15.1162 1274.47 13.3622C1260.48 11.6081 1263.94 10.4919 1247.61 11.6081C1231.18 12.7243 1233.3 13.0432 1225.96 10.8107C1218.68 8.5783 1212.35 5.01704 1195.97 8.2594C1179.53 11.5018 1169.06 14.3721 1164.91 15.3288C1160.71 16.2856 1152.68 14.2126 1146.08 14.691C1139.43 15.1694 1124.76 17.0829 1103.85 17.2423C1083.59 17.4018 1032.75 20.8568 1010.41 25.1622C1009.77 25.4811 1008.28 25.8532 1005.73 26.4379C1003.34 26.9162 1001.21 27.3947 999.19 27.8199C998.977 27.8731 998.764 27.9261 998.605 27.9261C994.669 28.7766 991.425 29.4676 988.979 30.0523C988.819 30.1055 988.713 30.1054 988.553 30.1586C988.5 30.1586 988.394 30.2118 988.34 30.2118C962.174 29.5208 928.19 28.2982 938.773 26.4379C949.942 24.5243 949.25 24.2055 922.021 23.5676C920.478 23.5145 919.042 23.5144 917.553 23.4613C855.116 21.973 840.544 22.664 849.372 24.5243C858.466 26.4379 832.619 26.119 808.208 25.1622C783.797 24.2055 704.873 25.8001 650.413 25.4811C595.953 25.1622 565.957 22.9298 542.876 23.8865C519.847 24.8433 526.123 25.1622 507.987 24.5243C498.787 24.2054 492.617 24.2054 487.193 24.3118C481.874 24.3649 477.194 24.5243 470.972 24.5243C460.601 24.5243 442.625 23.6739 445.284 25.1622C427 21.638 396.247 22.0995 369.206 19.5286C357.671 18.4319 346.114 17.3865 334.545 16.7482C322.793 16.0998 314.334 15.0762 309.719 14.7441C303.072 14.2657 295.041 16.3387 290.893 15.3819C286.691 14.4252 276.214 11.5549 259.833 8.31252C243.4 5.12332 237.177 8.6315 229.838 10.8639C222.499 13.0964 224.573 12.7774 208.192 11.6612C191.812 10.545 195.269 11.6612 181.335 13.4153C167.347 15.1693 157.934 12.9369 143.415 12.1928C132.14 11.6081 128.045 7.88736 103.687 9.37566C91.7737 10.0666 78.2119 5.86753 59.7572 1.98733C41.2494 -1.83971 35.346 1.03057 19.976 1.98733C14.0194 2.35941 7.63745 1.9873 2 1.45577V140.984H35.3992C39.388 141.037 43.3767 141.09 47.2059 141.09C50.1842 141.09 52.9497 141.037 55.5025 140.984H117.195C128.63 141.568 138.096 141.462 146.074 140.984C147.35 140.93 148.414 140.771 149.637 140.718C149.531 140.718 149.425 140.771 149.318 140.771C150.648 140.665 151.765 140.558 153.041 140.452C154.317 140.346 155.594 140.239 156.764 140.133C158.625 139.92 160.274 139.761 161.923 139.548C162.774 139.442 163.678 139.336 164.475 139.229C166.709 138.964 168.783 138.698 170.698 138.432C172.719 138.166 174.633 137.954 176.389 137.794C185.802 136.891 190.748 135.668 198.407 133.702C198.46 133.702 198.566 133.702 198.619 133.702C190.854 135.668 185.908 136.944 176.389 137.847C169.209 138.538 159.902 140.293 146.074 141.09L1123.27 145.555L1466.09 146.99Z" fill="#A8E34B"/>
<defs>
<filter id="filter0_b_1_2321" x="-38" y="34" width="1493" height="698" filterUnits="userSpaceOnUse" colorInterpolationFilters="sRGB">
<feFlood floodOpacity="0" result="BackgroundImageFix"/>
<feGaussianBlur in="BackgroundImage" stdDeviation="2"/>
<feComposite in2="SourceAlpha" operator="in" result="effect1_backgroundBlur_1_2321"/>
<feBlend mode="normal" in="SourceGraphic" in2="effect1_backgroundBlur_1_2321" result="shape"/>
</filter>
</defs>
</svg>
