<svg width="1440" height="634" viewBox="0 0 1440 634" fill="none" xmlns="http://www.w3.org/2000/svg">
<g opacity="0.62">
<g opacity="0.62">
<path opacity="0.62" d="M169.722 329.638H159.278C132.354 329.638 110.106 349.929 106.954 376.009H98.7138L98.8374 380.417H93.7492L96.0358 393.807H99.1876L100.444 441.867L95.253 442.053L93.193 448.089L85.9417 447.903L79.0613 565.468L78.2991 578.508L74.9206 578.405L70.0178 593.443H161.668L158.722 581.124L153.304 580.96L142.448 449.325L138.884 449.242V449.201L136.845 449.16L133.425 440.755L128.399 440.92L128.955 413.007L129.326 393.849H131.489L133.075 380.458H129.593L129.655 377.43H129.676V376.05H123.269C126.297 358.89 141.294 345.809 159.299 345.809H169.743C192.403 345.809 210.861 364.205 210.964 386.844L204.331 518.047C204.331 518.212 204.331 518.397 204.331 518.562H206.72H210.861H220.481L227.114 387.463V387.05C227.073 355.367 201.344 329.638 169.722 329.638Z" fill="#345901"/>
<path opacity="0.62" d="M549.795 448.501L549.815 448.047C549.815 445.287 549.63 442.588 549.28 439.931H549.3L549.156 438.942C549.115 438.613 549.053 438.262 549.012 437.933L548.93 437.418L550.578 436.944L550.372 435.935L548.724 436.326C547.302 428.745 544.562 421.617 540.731 415.231L540.648 415.087C540.484 414.799 540.277 414.51 540.113 414.222L539.309 412.924L540.896 411.688L539.474 409.752L538.012 411.029C533.273 404.375 527.279 398.648 520.378 394.219V394.199L519.636 393.746C519.286 393.519 518.936 393.313 518.565 393.086L518.029 392.757L519.307 390.552L516.69 389.934L515.846 391.562C506.905 386.803 496.708 384.084 485.873 384.084H485.007H483.359L483.401 383.033H481.176L481.217 384.084H474.233C465.849 384.084 457.898 385.856 450.688 389.028L449.287 386.989L447.886 387.957L449.081 389.749L448.937 389.831C448.731 389.934 448.525 390.037 448.319 390.14L447.124 390.738V390.758C437.977 395.538 430.252 402.645 424.711 411.297L421.724 410.184L421.188 412.162L423.619 413.048H423.598L423.063 414.016C422.857 414.387 422.63 414.758 422.424 415.149L422.28 415.396H422.301C421.374 417.147 420.529 418.96 419.767 420.814L366.124 420.896L360.727 425.511H360.747L348.799 425.367L345.668 429.466L416.574 431.3L338.025 429.26L338.231 432.556L328.941 432.391L330.671 437.418L334.05 437.459L339.055 445.555L347.728 586.398L348.367 596.616L453.675 595.936V596.121H454.993V595.936L469.351 595.853L469.331 596.142H470.525L470.546 595.853L509.089 595.606L519.986 439.251L526.475 439.313L528.659 435.873L520.234 435.729L520.357 434.019L434.99 431.815L513.786 433.854L511.499 427.283L501.817 427.18L495.307 420.732L439.955 420.835C440.078 420.649 440.202 420.443 440.326 420.258L440.532 419.949C440.655 419.784 440.758 419.619 440.882 419.454L442.324 419.99L443.024 418.218L442.056 417.868C446.485 412.203 452.377 407.733 459.175 405.034L460.081 406.373L461.894 405.446L461.111 404.313C465.231 402.913 469.619 402.15 474.213 402.15H481.773L481.814 403.201H482.618L482.659 402.15H484.08H485.873C493.701 402.15 501.096 404.128 507.544 407.609L506.823 409.01L507.874 410.226L508.945 408.413C509.089 408.495 509.233 408.578 509.357 408.66L509.851 408.948C515.64 412.512 520.584 417.333 524.312 422.998L523.118 424.048L523.818 425.037L525.033 424.09C525.033 424.11 525.054 424.11 525.054 424.131L525.157 424.316C528.123 429.198 530.204 434.678 531.172 440.508L530.225 440.734L530.472 442.815L531.461 442.527C531.481 442.691 531.502 442.856 531.522 443.021L531.564 443.412C531.708 444.896 531.79 446.379 531.811 447.903L530.884 466.258L528.741 466.176L528.494 468.4L530.781 468.483L530.74 469.121L529.401 495.428L527.691 495.345L527.444 497.57L529.298 497.632L527.794 527.296L527.711 529.068L526.352 555.992H524.024V557.764H526.269L526.249 558.258L524.992 583.184L523.385 583.122L523.138 585.347L524.889 585.409L524.436 594.247C524.415 594.432 524.415 594.617 524.415 594.823H527.073H531.687H542.399L542.853 586.027L543.924 586.068V584.049L542.956 584.008L544.15 560.545L544.233 558.794L544.274 557.805H545.695V556.033H544.356L545.572 532.055L545.592 531.54L545.716 529.109H547.24V527.337H545.819L547.261 498.683L547.282 498.271L548.27 498.312V496.293L547.385 496.252L548.765 469.101L550.372 469.163V467.144L548.868 467.082L549.795 448.501ZM335.801 437.5L338.582 437.521L338.952 443.495L335.801 437.5Z" fill="#345901"/>
<path opacity="0.62" d="M523.571 439.272L519.554 445.452L519.471 446.626L524.683 439.292L523.571 439.272Z" fill="#345901"/>
<path opacity="0.62" d="M603.973 258.877L603.829 259.783L604.117 257.908H562.505L564.297 270.207L563.164 270.186L564.565 275.336H569.88L568.788 293.176H560.713L562.649 306.545L563.288 306.566H563.412L562.382 295.256L563.844 295.215L565.492 306.607L561.413 306.545L562.938 312.148H567.635L567.593 312.766L567.49 314.311L565.884 340.597H558.756L560.857 353.967L559.498 353.946L561.146 359.549H564.709L563.061 386.432H556.614L558.9 399.802L559.662 399.823H559.807L558.571 388.513L560.301 388.472L562.237 399.802V399.864L557.417 399.802L559.209 405.405H561.887L561.867 405.632L561.805 406.6L560.116 434.039L559.992 435.955H552.143L554.821 449.325L555.707 449.345H555.872L554.45 438.036L556.469 437.995L558.735 449.386L553.111 449.325L555.213 454.928H558.838L558.674 457.709L556.449 493.945H547.014L550.125 507.314L551.175 507.335L548.126 507.293L550.578 512.897H555.295L551.072 581.784L547.776 581.66L543.594 596.698H621.813L619.3 584.379L615.18 584.214L611.224 521.137L610.73 512.897H615.509L617.157 510.136L621.834 596.698H627.066L604.117 257.888L603.973 258.877ZM592.149 270.68L592.211 269.733V270.68H592.149ZM567.161 270.248L566.357 260.792L572.929 260.772L573.609 270.371H574H574.185L567.161 270.248ZM574.309 260.751H574.618H574.536L575.215 270.371L574.165 270.351L574.309 260.751ZM575.566 260.751L591.84 260.689V270.68L575.566 270.392V260.751ZM565.369 259.536H563.679H565.369ZM565.389 259.762L566.914 270.248L564.998 270.207L564.05 259.804L565.389 259.762ZM592.231 270.68H592.581H592.767L593.488 260.669L601.851 260.628L600.306 270.825L592.231 270.68ZM602.428 259.598H603.19L601.707 270.845L600.677 270.825L602.428 259.598ZM602.449 259.371H603.438H602.449ZM564.895 270.207H564.915H564.668H564.895ZM601.79 275.336L603.438 270.886L602.099 270.866L603.726 260.36V261.122L605.456 293.196H596.969L595.857 275.357H601.79V275.336ZM610.833 449.984L609.288 449.963L611.904 437.747H613.058L610.833 449.984ZM564.236 354.008L563.288 343.728H565.698L565.06 354.028L564.236 354.008ZM606.795 449.922L606.095 438.88L611.039 438.86L608.732 449.943L606.795 449.922ZM611.945 437.5H613.243H611.945ZM603.685 400.461L602.984 389.42L607.084 389.399L605.106 400.482L603.685 400.461ZM607.846 388.266H608.835L606.919 400.502L605.601 400.482L607.846 388.266ZM607.887 388.019H609.144H607.887ZM600.821 354.585L600.142 343.564L605.209 343.543L603.396 354.605L600.821 354.585ZM605.889 342.431H606.795L605.044 354.667L603.829 354.646L605.889 342.431ZM605.93 342.183H607.084H605.93ZM597.855 307.163L597.175 296.183L603.479 296.163L601.81 307.246L597.855 307.163ZM604.076 295.03H604.921L603.314 307.266L602.181 307.246L604.076 295.03ZM604.117 294.783H605.189H604.117ZM562.114 342.348H560.116H562.114ZM562.155 342.595L563.947 353.987L561.681 353.946L560.548 342.637L562.155 342.595ZM549.033 495.654H551.999H549.033ZM556.284 497.014L555.645 507.293H555.13L553.73 497.014H556.284ZM609.721 496.87L615.612 496.849L612.934 507.932L610.4 507.911L609.721 496.87ZM616.436 496.478L616.725 501.649L615.386 507.953L613.573 507.932L616.436 496.478ZM609.535 493.862L607.619 463.333L607.331 458.615L607.084 454.825H610.936L613.408 449.984L611.41 449.963L613.408 440.652L616.271 493.842H609.535V493.862ZM605.91 435.893L603.994 405.364H607.022L609.144 400.523L607.434 400.502L610.03 386.412H602.82L602.284 377.945L601.522 365.832L601.419 364.184L601.13 359.529H605.127L607.084 354.688L605.518 354.667L607.908 340.577H599.956L598.164 312.128H603.396L605.189 307.287L603.747 307.266L605.601 295.38L613.181 435.914H605.91V435.893ZM561.949 294.968H563.803H561.949ZM564.874 296.328L568.582 296.307L567.944 306.628L565.739 306.586L564.874 296.328ZM561.558 353.967H561.516H561.558ZM558.076 388.204H560.26H558.076ZM561.537 389.564H562.876L562.382 397.783L561.537 389.564ZM553.915 437.686H556.449H553.915ZM557.932 439.045H559.827L559.189 449.325H559.127L557.932 439.045ZM549.712 495.943L552.061 495.902L554.718 507.293L551.381 507.252L549.712 495.943ZM616.086 507.953L616.889 504.739L617.054 507.953H616.086Z" fill="#345901"/>
</g>
<path opacity="0.62" d="M578.676 478.041C578.676 468.606 570.972 461.005 561.537 461.129L-28.6567 468.133C-45.1368 468.339 -58.3827 481.77 -58.3827 498.25H-34.0539C-34.4453 487.414 -25.8345 478.391 -14.9988 478.268L557.108 471.944C560.507 471.902 563.288 474.642 563.288 478.041H578.676Z" fill="#345901"/>
<g opacity="0.62">
<g opacity="0.62">
<g opacity="0.62">
<path opacity="0.62" d="M532.656 593.278L530.183 504.512L551.443 489.845H590.418L612.584 505.254L609.535 593.896L532.656 593.278Z" fill="#345901"/>
<path opacity="0.62" d="M531.79 507.19L534.983 589.406L543.574 589.364L541.575 507.19L552.576 493.182H589.945L551.567 491.143L531.79 507.19Z" fill="#345901"/>
<path opacity="0.37" d="M587.163 506.614H610.133L606.033 591.63H587.122L587.163 506.614Z" fill="#345901"/>
<path opacity="0.62" d="M551.443 489.845L555.707 477.238H587.122L590.418 489.845H551.443Z" fill="#345901"/>
<path opacity="0.81" d="M553.771 488.774L556.366 479.463H563.061V488.197L553.771 488.774Z" fill="#345901"/>
<path opacity="0.62" d="M612.584 505.254L530.183 504.512L530.472 514.813L612.584 514.462V505.254Z" fill="#345901"/>
</g>
<path opacity="0.1" d="M532.656 593.278C532.656 593.278 578.264 590.209 592.705 575.995C610.153 558.835 612.275 514.462 612.275 514.462L609.535 593.896L532.656 593.278Z" fill="#345901"/>
<path opacity="0.81" d="M531.44 513.659L531.008 505.501H611.616L541.246 506.202L541.452 513.721L531.44 513.659Z" fill="#345901"/>
</g>
<path opacity="0.37" d="M611.884 525.731L530.554 518.088L530.472 514.813L612.275 514.462L611.884 525.731Z" fill="#345901"/>
</g>
<g opacity="0.62">
<path opacity="0.62" d="M465.149 233.374H463.995V269.527H465.149V233.374Z" fill="#345901"/>
<path opacity="0.62" d="M465.149 251.46H463.995V253.706H465.149V251.46Z" fill="#345901"/>
<path opacity="0.62" d="M465.149 239.966H463.995V241.881H465.149V239.966Z" fill="#345901"/>
<path opacity="0.62" d="M503.98 213H502.826V268.765H503.98V213Z" fill="#345901"/>
<path opacity="0.62" d="M503.98 240.872H502.826V244.333H503.98V240.872Z" fill="#345901"/>
<g opacity="0.62">
<path opacity="0.62" d="M514.136 468.153L513.765 463.024L510.16 413.954L507.008 371.065L506.843 368.86L504.31 334.314H504.33L504.062 330.688H504.042L501.735 299.52L501.59 297.584L499.901 274.512V271.916L489.539 246.97L489.169 246.084L484.616 235.083L480.063 246.084L469.331 271.937V274.533L467.353 300.468V300.571L462.224 367.892L461.976 371.065L458.722 413.954L458.454 417.6L451.285 512.093H457.362L459.937 476.064L480.104 492.564L457.362 512.114H466.941L484.678 496.313L503.98 512.114H511.272L488.777 492.647L508.883 474.745L511.272 512.114H517.35L514.136 468.153ZM463.604 424.44L481.691 441.703L460.843 463.024L463.604 424.44ZM485.028 444.875L504.042 463.003H466.014L485.028 444.875ZM466.941 377.533L481.958 394.034L464.345 413.954L466.941 377.533ZM485.028 397.392L500.107 413.954H471.597L485.028 397.392ZM504.866 411.935L488.077 393.601L502.559 375.741L504.866 411.935ZM508.018 460.902L488.509 441.558L505.731 425.14L508.018 460.902ZM502.497 374.67L502.27 371.044L485.172 390.408L467.435 371.044H502.291L502.497 374.67ZM472.05 305.721L482.329 316.886L470.361 329.576L472.05 305.721ZM474.027 278.076L482.783 286.584L472.771 295.668L474.027 278.076ZM497.491 296.657L487.212 286.275L496.255 277.417L497.491 296.657ZM496.07 274.533L485.275 284.318L475.552 274.491H496.049L496.07 274.533ZM484.822 288.582L494.01 297.522L475.84 297.378L484.822 288.582ZM499.675 330.688L487.253 316.928L498.047 305.474L499.675 330.688ZM495.04 330.688H474.275L484.781 319.544L495.04 330.688ZM469.516 341.524L481.547 353.143L468.012 366.945L467.724 366.924L469.516 341.524ZM484.678 356.191L497.306 368.407L474.604 367.295L484.678 356.191ZM501.776 368.613L487.294 353.307L500.231 339.073L502.126 368.613H501.776ZM499.901 334.396L484.369 350.238L469.969 335.035V334.932L499.901 334.396ZM492.032 262.399L486.47 254.818L488.674 251.749L492.032 262.399ZM484.554 238.771L487.521 248.164L484.451 252.078L481.629 248.226L484.554 238.771ZM482.741 254.262L477.797 260.586L480.619 251.46L482.741 254.262ZM484.863 257.064L494.319 269.568L495.06 271.916H474.295L484.863 257.064ZM497.718 300.159L497.738 300.55L484.822 314.229L472.421 300.468L472.153 304.258L472.421 300.468L497.718 300.159ZM464.345 417.6H505.237L485.11 438.18L464.345 417.6L464.036 418.198L464.078 417.6H464.345ZM508.471 468.153L484.41 488.836L460.493 468.153H508.471Z" fill="#345901"/>
<path opacity="0.62" d="M420.385 594.185L443.786 512.093H523.282L542.502 594.535L420.385 594.185Z" fill="#345901"/>
<path opacity="0.62" d="M446.526 513.721L422.63 593.484H438.122L458.845 513.721H446.526Z" fill="#345901"/>
<path opacity="0.37" d="M503.259 513.721L516.175 593.484H539.227L518.915 513.721H503.259Z" fill="#345901"/>
<path opacity="0.62" d="M434.661 544.085H530.74L536.817 570.103H427.245L434.661 544.085Z" fill="#345901"/>
<path opacity="0.53" d="M431.303 569.073L438.245 544.909H450.997L444.611 569.073H431.303Z" fill="#345901"/>
<path opacity="0.62" d="M434.661 544.085H530.74L530.946 544.93L434.599 544.291L434.661 544.085Z" fill="#345901"/>
<path opacity="0.62" d="M519.121 468.153L518.689 463.024L514.466 413.954L510.778 371.065L510.593 368.86L507.626 334.314H507.647L507.338 330.688H507.317L504.639 299.52L504.475 297.584L502.497 274.512V271.916L490.405 246.97L489.972 246.084L484.657 235.083L479.342 246.084L466.817 271.937V274.533L464.51 300.468V300.571L458.536 367.913L458.248 371.085L454.437 413.975L454.107 417.621L445.744 512.093H452.851L455.838 476.064L479.384 492.564L452.851 512.114H464.036L484.74 496.313L507.276 512.114H515.805L489.539 492.647L513.003 474.745L515.805 512.114H522.912L519.121 468.153ZM460.143 424.44L481.258 441.703L456.929 463.024L460.143 424.44ZM485.152 444.875L507.338 463.003H462.965L485.152 444.875ZM464.036 377.533L481.567 394.034L461.008 413.954L464.036 377.533ZM485.131 397.392L502.744 413.954H469.454L485.131 397.392ZM508.306 411.935L488.695 393.601L505.587 375.741L508.306 411.935ZM511.973 460.902L489.21 441.558L509.295 425.14L511.973 460.902ZM505.525 374.67L505.257 371.044L485.296 390.408L464.572 371.044H505.257L505.525 374.67ZM470.01 305.721L482 316.886L468.012 329.576L470.01 305.721ZM472.297 278.076L482.515 286.584L470.814 295.668L472.297 278.076ZM499.695 296.657L487.685 286.275L498.253 277.417L499.695 296.657ZM498.047 274.533L485.461 284.318L474.11 274.491H498.047V274.533ZM484.925 288.582L495.658 297.522L474.46 297.378L484.925 288.582ZM502.229 330.688L487.727 316.928L500.334 305.474L502.229 330.688ZM496.832 330.688H472.585L484.843 319.544L496.832 330.688ZM467.023 341.524L481.052 353.143L465.252 366.945L464.902 366.924L467.023 341.524ZM484.74 356.191L499.489 368.407L472.977 367.295L484.74 356.191ZM504.68 368.613L487.768 353.307L502.868 339.073L505.072 368.613H504.68ZM502.517 334.396L484.389 350.238L467.58 335.035V334.932L502.517 334.396ZM493.33 262.399L486.82 254.818L489.375 251.749L493.33 262.399ZM484.595 238.771L488.056 248.164L484.472 252.078L481.176 248.226L484.595 238.771ZM482.474 254.262L476.706 260.586L480.002 251.46L482.474 254.262ZM484.946 257.064L495.967 269.568L496.832 271.916H472.585L484.946 257.064ZM499.963 300.159L499.984 300.55L484.925 314.229L470.443 300.468L470.134 304.258L470.443 300.468L499.963 300.159ZM461.008 417.6H508.739L485.255 438.18L461.008 417.6L460.658 418.198L460.699 417.6H461.008ZM512.509 468.153L484.41 488.836L456.497 468.153H512.509Z" fill="#345901"/>
<path opacity="0.62" d="M468.012 271.916L483.874 237.782L470.834 271.916L451.285 510.651L446.897 512.093L468.012 271.916Z" fill="#345901"/>
<path opacity="0.62" d="M462.615 268.764L464.572 284.317H505.072L506.761 268.764H462.615Z" fill="#345901"/>
<path opacity="0.62" d="M463.542 269.444L465.396 283.411H473.636L472.153 269.444H463.542Z" fill="#345901"/>
<path opacity="0.37" d="M498.871 269.444L496.646 283.411L464.51 283.885L464.572 284.318H503.321L505.319 269.444H498.871Z" fill="#345901"/>
</g>
</g>
<g opacity="0.62">
<g opacity="0.62">
<g opacity="0.62">
<path opacity="0.62" d="M154.211 387.009V387.421L147.577 518.52H131.427C131.427 518.356 131.427 518.17 131.427 518.005L138.06 386.803C137.957 364.164 119.499 345.768 96.8392 345.768H86.3949C66.2274 345.768 49.8091 362.186 49.8091 382.354V397.763C49.8091 402.233 46.1834 405.838 41.7338 405.838C37.2842 405.838 33.6586 402.233 33.6586 397.763V382.354C33.6586 353.287 57.3075 329.617 86.3949 329.617H96.8392C128.481 329.638 154.211 355.367 154.211 387.009Z" fill="#345901"/>
</g>
<g opacity="0.55">
<path opacity="0.55" d="M40.333 399.864V385.299C40.333 357.819 62.6841 335.468 90.1647 335.468H100.032C114.02 335.468 126.792 340.803 136.433 349.538C126.503 338.599 112.186 331.719 96.2829 331.719H86.4155C58.9349 331.719 36.5837 354.07 36.5837 381.55V396.115C36.5837 399.184 38.4172 401.841 41.0334 403.036C40.5802 402.089 40.333 400.997 40.333 399.864Z" fill="#345901"/>
<path opacity="0.55" d="M144.425 390.717L137.957 518.52H133.816C133.816 518.335 133.816 518.15 133.816 517.944L140.45 386.741C140.408 376.462 136.556 367.068 130.273 359.858C138.884 367.398 144.364 378.419 144.425 390.717Z" fill="#345901"/>
</g>
</g>
<path opacity="0.62" d="M55.2475 453.98H27.8699L25.8511 376.009H56.7925L55.2475 453.98Z" fill="#345901"/>
<path opacity="0.62" d="M27.8905 398.442L33.6585 401.347L32.5873 440.734L28.6115 441.167L27.8905 398.442Z" fill="#345901"/>
<path opacity="0.15" d="M27.2313 428.91C27.2313 428.91 45.6684 425.119 56.2363 404.396L56.4423 393.807H26.3043L27.2313 428.91Z" fill="#345901"/>
<path opacity="0.62" d="M4.65356 592.022L13.0584 447.924L69.5852 449.304L81.3066 591.466L4.65356 592.022Z" fill="#345901"/>
<path opacity="0.62" d="M20.866 380.417L23.1526 393.828H58.6054L60.1916 380.417H20.866Z" fill="#345901"/>
<path opacity="0.62" d="M20.3097 448.089L22.3697 442.053L60.5417 440.734L63.982 449.16L20.3097 448.089Z" fill="#345901"/>
<path opacity="0.62" d="M23.8529 393.066L21.8547 381.839L58.832 380.973L58.1522 384.681L57.4312 382.292L24.8417 387.648L23.8529 393.066Z" fill="#345901"/>
<path opacity="0.62" d="M62.3133 448.768L59.6147 441.847L22.9258 442.588L21.1954 447.924L22.452 446.296L58.8937 442.918L62.3133 448.768Z" fill="#345901"/>
<path opacity="0.36" d="M26.3867 396.547L53.6613 411.977V440.961L55.5153 440.899L56.4423 393.828H26.3043L26.3867 396.547Z" fill="#345901"/>
<path opacity="0.62" d="M25.9541 380.026L25.8511 376.009H56.7925V377.41L27.2931 376.998L25.9541 380.026Z" fill="#345901"/>
<path opacity="0.62" d="M7.12561 589.653L14.3357 449.551L67.4222 451.92L70.059 475.837L64.7854 454.804L16.8077 480.06L7.12561 589.653Z" fill="#345901"/>
<path opacity="0.43" d="M58.6259 449.036L70.059 589.653L4.65356 592.022L79.0612 591.486L66.0008 449.16L58.6259 449.036Z" fill="#345901"/>
<path opacity="0.15" d="M6.19861 565.468C6.19861 565.468 51.8073 562.708 73.7258 499.507L69.5852 449.304L13.0585 447.924L6.19861 565.468Z" fill="#345901"/>
<path opacity="0.62" d="M-2.84485 593.443L2.05798 578.405L85.8593 581.124L88.8051 593.443H-2.84485Z" fill="#345901"/>
<path opacity="0.62" d="M-1.3822 592.413L2.88202 579.373L83.9023 581.989L14.1709 581.062L11.2251 592.413H-1.3822Z" fill="#345901"/>
<path opacity="0.2" d="M84.7263 582.731L87.5073 593.443H-2.84485L85.6121 592.393L84.7263 582.731Z" fill="#345901"/>
</g>
<g opacity="0.62">
<path opacity="0.62" d="M139.461 596.018L154.932 232.137H171.247L176.212 596.43L139.461 596.018Z" fill="#345901"/>
<path opacity="0.62" d="M153.366 268.868H171.741L172.174 300.777L152.089 299.026L153.366 268.868Z" fill="#345901"/>
<path opacity="0.62" d="M151.862 304.403H172.236L172.174 308.44L151.677 308.626L151.862 304.403Z" fill="#345901"/>
<path opacity="0.55" d="M169.393 233.724H156.044L142.695 594.638H152.295L159.876 234.527L169.393 233.724Z" fill="#345901"/>
<path opacity="0.62" d="M150.091 241.057L151.677 247.34H173.101L175.079 242.19L150.091 241.057Z" fill="#345901"/>
<path opacity="0.55" d="M152.48 246.413L151.368 241.387L173.76 242.808L172.174 246.043L152.48 246.413Z" fill="#345901"/>
</g>
<g opacity="0.62">
<g opacity="0.62">
<path opacity="0.62" d="M445.785 448.048L445.764 448.501L438.389 594.659H420.385C420.385 594.473 420.385 594.288 420.405 594.082L427.801 447.821C427.677 422.586 407.118 402.089 381.863 402.089H370.223C347.728 402.089 329.435 420.382 329.435 442.877V460.057C329.435 465.022 325.398 469.06 320.433 469.06C315.468 469.06 311.431 465.043 311.431 460.057V442.877C311.431 410.473 337.799 384.105 370.203 384.105H381.842C417.089 384.105 445.785 412.801 445.785 448.048Z" fill="#345901"/>
</g>
<g opacity="0.55">
<path opacity="0.55" d="M318.826 462.406V446.173C318.826 415.54 343.752 390.614 374.385 390.614H385.385C400.979 390.614 415.235 396.547 425.967 406.291C414.905 394.096 398.94 386.432 381.224 386.432H370.223C339.591 386.432 314.665 411.359 314.665 441.991V458.224C314.665 461.644 316.704 464.61 319.63 465.949C319.115 464.857 318.826 463.662 318.826 462.406Z" fill="#345901"/>
<path opacity="0.55" d="M434.867 452.188L427.657 594.659H423.042C423.022 594.453 423.022 594.226 423.042 594.02L430.438 447.759C430.376 436.285 426.091 425.82 419.087 417.786C428.707 426.191 434.805 438.489 434.867 452.188Z" fill="#345901"/>
</g>
<path opacity="0.62" d="M244.336 596.616L234.036 429.281L416.306 433.998L405.038 595.586L244.336 596.616Z" fill="#345901"/>
<path opacity="0.62" d="M405.038 595.586L405.573 587.922L243.697 586.398L244.336 596.616L405.038 595.586Z" fill="#345901"/>
<path opacity="0.36" d="M234.036 429.281L235.437 452.044L415.214 449.757L416.306 433.998L234.036 429.281Z" fill="#345901"/>
<path opacity="0.55" d="M249.527 594.535L238.63 432.948L394.12 436.944L260.816 437.644L266.11 594.535H249.527Z" fill="#345901"/>
<path opacity="0.36" d="M399.393 436.944L392.616 593.32L269.88 594.535H401.7L413.154 436.944H399.393Z" fill="#345901"/>
<path opacity="0.55" d="M269.901 437.789L273.506 591.26L279.109 590.456L276.781 437.562L269.901 437.789Z" fill="#345901"/>
<path opacity="0.62" d="M230.019 437.48L235.025 445.575V443.742L231.749 437.48H230.019Z" fill="#345901"/>
<path opacity="0.62" d="M419.52 439.272L415.523 445.452L415.42 446.626L420.653 439.292L419.52 439.272Z" fill="#345901"/>
<path opacity="0.62" d="M321.813 438.345L323.049 449.078H323.77L324.78 438.345H321.813Z" fill="#345901"/>
<path opacity="0.62" d="M380.709 438.901L377.536 449.469H378.34L383.099 438.922L380.709 438.901Z" fill="#345901"/>
<path opacity="0.62" d="M266.11 437.562L270.086 445.576H271.034L268.582 437.851L266.11 437.562Z" fill="#345901"/>
<path opacity="0.62" d="M224.931 432.412L226.661 437.439L422.445 439.293L424.608 435.852L224.931 432.412Z" fill="#345901"/>
<path opacity="0.55" d="M226.455 433.339L227.217 436.923L400.011 438.51L401.391 435.914L226.455 433.339Z" fill="#345901"/>
<path opacity="0.62" d="M241.679 429.487L244.789 425.387L407.469 427.262L409.755 433.833L241.679 429.487Z" fill="#345901"/>
<path opacity="0.62" d="M256.717 425.532L262.093 420.917L391.297 420.691L397.91 427.262L256.717 425.532Z" fill="#345901"/>
<path opacity="0.62" d="M259.848 425.573L263.803 421.659L391.297 420.691L278.368 422.359L276.246 425.573H259.848Z" fill="#345901"/>
<path opacity="0.62" d="M243.656 429.281L245.634 426.005L406.624 427.921L261.249 427.262L259.848 429.281H243.656Z" fill="#345901"/>
<path opacity="0.62" d="M419.355 582.978L439.893 583.885V585.904L419.108 585.203L419.355 582.978Z" fill="#345901"/>
<path opacity="0.62" d="M423.681 495.242L444.24 496.149V498.168L423.434 497.467L423.681 495.242Z" fill="#345901"/>
<path opacity="0.62" d="M424.711 466.093L446.32 467V469.018L424.464 468.318L424.711 466.093Z" fill="#345901"/>
<path opacity="0.62" d="M426.215 440.673L446.32 435.914L446.526 436.944L425.967 442.877L426.215 440.673Z" fill="#345901"/>
<path opacity="0.62" d="M441.685 555.889H419.993V557.661H441.685V555.889Z" fill="#345901"/>
<path opacity="0.62" d="M443.23 527.193H421.538V528.965H443.23V527.193Z" fill="#345901"/>
<path opacity="0.62" d="M419.787 424.975L436.824 411.688L435.402 409.752L419.087 423.966L419.787 424.975Z" fill="#345901"/>
<path opacity="0.62" d="M415.255 390.594L403.864 410.164L402.792 408.948L412.66 389.976L415.255 390.594Z" fill="#345901"/>
<path opacity="0.62" d="M377.145 383.054L377.784 403.139H378.587L379.37 383.054H377.145Z" fill="#345901"/>
<path opacity="0.62" d="M357.884 405.385L345.236 387.009L343.835 387.998L356.071 406.332L357.884 405.385Z" fill="#345901"/>
<path opacity="0.62" d="M317.673 410.205L339.014 418.177L338.314 419.949L317.137 412.162L317.673 410.205Z" fill="#345901"/>
<path opacity="0.36" d="M426.75 468.38L444.734 469.018L444.652 470.316L426.709 469.018L426.75 468.38Z" fill="#345901"/>
<path opacity="0.36" d="M425.288 497.529L443.251 498.147L443.169 500.063L425.205 498.847L425.288 497.529Z" fill="#345901"/>
<path opacity="0.36" d="M423.64 530.057L441.541 531.911L441.706 528.965H423.681L423.64 530.057Z" fill="#345901"/>
<path opacity="0.36" d="M422.239 557.64L422.156 559.123L440.12 560.38L440.243 557.64H422.239Z" fill="#345901"/>
<path opacity="0.36" d="M420.838 585.265V587.037L438.719 587.922V585.862L420.838 585.265Z" fill="#345901"/>
<path opacity="0.36" d="M427.451 442.444L444.899 437.418L445.27 439.931L427.595 443.701L427.451 442.444Z" fill="#345901"/>
<path opacity="0.36" d="M421.003 424.028L435.237 412.924L436.679 415.211L421.559 424.975L421.003 424.028Z" fill="#345901"/>
<path opacity="0.36" d="M404.914 408.33L406.191 409.093L416.306 394.219L413.978 392.798L404.914 408.33Z" fill="#345901"/>
<path opacity="0.36" d="M378.628 402.089H380.05L380.977 384.105H379.329L378.628 402.089Z" fill="#345901"/>
<path opacity="0.36" d="M355.165 404.973L345.03 389.77L343.073 390.759L354.403 405.282L355.165 404.973Z" fill="#345901"/>
<path opacity="0.36" d="M336.851 419.413L319.568 413.068L318.249 415.417L336.213 420.361L336.851 419.413Z" fill="#345901"/>
<path opacity="0.62" d="M366.371 570.453L350.798 569.918L350.715 558.402L366.927 558.814L366.371 570.453ZM366.969 557.764L350.715 557.228L350.633 545.733L367.525 546.145L366.969 557.764ZM367.587 545.054L350.633 544.539L350.55 533.023L368.143 533.435L367.587 545.054ZM368.184 532.364L350.53 531.849L350.447 520.333L368.74 520.745L368.184 532.364ZM368.781 519.674L350.447 519.139L350.365 507.623L369.338 508.035L368.781 519.674ZM369.399 506.964L350.365 506.428L350.282 494.913L369.956 495.325L369.399 506.964ZM369.997 494.274L350.262 493.739L350.179 482.223L370.553 482.635L369.997 494.274ZM370.594 481.564L350.179 481.028L350.097 469.513L371.15 469.925L370.594 481.564ZM371.212 468.874L350.097 468.339L350.015 456.823L371.768 457.256L371.212 468.874ZM372.366 444.566L371.81 456.185L349.994 455.628L349.912 444.566H372.366ZM350.88 582.628L350.798 571.113L366.309 571.525L365.753 583.164L350.88 582.628ZM371.645 432.103L370.1 434.905L372.819 434.946L372.428 443.371H349.932L349.85 432.165L346.595 432.103L345.05 434.534L347.79 434.74L349.664 592.866H350.983L350.921 583.802L365.733 584.214L365.321 592.866H366.515L374.941 432.165L371.645 432.103Z" fill="#345901"/>
</g>
<g opacity="0.62">
<g opacity="0.62">
<path opacity="0.62" d="M40.4979 486.116V486.446L45.9982 595.153H59.3882C59.3882 595.009 59.3882 594.865 59.3882 594.72L53.888 485.931C53.9704 467.164 69.2763 451.92 88.0636 451.92H96.7363C113.464 451.92 127.08 465.537 127.08 482.264V495.036C127.08 498.744 130.088 501.731 133.775 501.731C137.463 501.731 140.47 498.744 140.47 495.036V482.264C140.47 458.162 120.859 438.551 96.7569 438.551H88.0842C61.8191 438.571 40.4979 459.893 40.4979 486.116Z" fill="#345901"/>
</g>
<g opacity="0.55">
<path opacity="0.55" d="M134.908 496.787V484.716C134.908 461.932 116.368 443.392 93.5845 443.392H85.4062C73.8084 443.392 63.2199 447.821 55.2271 455.052C63.4465 445.987 75.3328 440.281 88.5168 440.281H96.6951C119.479 440.281 138.019 458.821 138.019 481.605V493.677C138.019 496.231 136.515 498.415 134.332 499.424C134.702 498.621 134.908 497.735 134.908 496.787Z" fill="#345901"/>
<path opacity="0.55" d="M48.6144 489.207L53.9704 595.174H57.4106C57.4106 595.009 57.4106 594.865 57.4106 594.7L51.9104 485.911C51.9516 477.382 55.1446 469.595 60.3564 463.621C53.1876 469.863 48.6556 479.01 48.6144 489.207Z" fill="#345901"/>
</g>
<path opacity="0.62" d="M197.986 472.15L194.319 531.581L190.323 596.616L70.8006 595.853L67.7518 552.099L62.4164 475.672L197.986 472.15Z" fill="#345901"/>
<path opacity="0.15" d="M197.986 472.15L194.319 531.581C176.912 550.533 148.71 562.872 116.883 562.872C98.9198 562.872 82.1101 558.938 67.7518 552.119L62.4164 475.693L197.986 472.15Z" fill="#345901"/>
<path opacity="0.62" d="M70.7801 595.853L70.3887 590.168L190.796 589.035L190.323 596.616L70.7801 595.853Z" fill="#345901"/>
<path opacity="0.36" d="M197.986 472.17L196.935 489.103L63.2198 487.394L62.4164 475.672L197.986 472.17Z" fill="#345901"/>
<path opacity="0.36" d="M74.9824 477.856L80.0295 594.164L171.329 595.071H73.2726L64.7648 477.856H74.9824Z" fill="#345901"/>
<path opacity="0.62" d="M200.952 478.247L197.244 484.283V482.924L199.675 478.247H200.952Z" fill="#345901"/>
<path opacity="0.62" d="M60.0267 479.586L62.9931 484.18L63.055 485.066L59.1821 479.607L60.0267 479.586Z" fill="#345901"/>
<path opacity="0.62" d="M132.683 478.906L131.777 486.879H131.241L130.479 478.906H132.683Z" fill="#345901"/>
<path opacity="0.62" d="M88.8876 479.318L91.236 487.167H90.6592L87.116 479.339L88.8876 479.318Z" fill="#345901"/>
<path opacity="0.62" d="M174.131 478.309L171.164 484.283H170.443L172.297 478.536L174.131 478.309Z" fill="#345901"/>
<path opacity="0.62" d="M204.743 474.498L203.465 478.227L57.8431 479.607L56.2363 477.052L204.743 474.498Z" fill="#345901"/>
<path opacity="0.55" d="M203.61 475.178L203.033 477.856L74.5293 479.009L73.4993 477.094L203.61 475.178Z" fill="#345901"/>
<path opacity="0.62" d="M95.6237 476.682L96.7773 478.494L94.7379 478.639L95.0469 485.066H111.795L111.857 476.723L114.287 476.682L115.441 478.494L113.402 478.639L112.021 596.245H111.033L111.074 589.509L100.053 589.818L100.362 596.245H99.4759L93.2135 476.723L95.6237 476.682ZM99.5583 579.579L111.136 579.167L111.197 570.598L99.1463 570.907L99.5583 579.579ZM99.1051 570.144L111.197 569.753L111.259 561.204L98.6931 561.513L99.1051 570.144ZM98.6519 560.689L111.259 560.298L111.321 551.728L98.2399 552.037L98.6519 560.689ZM98.1987 551.254L111.321 550.863L111.383 542.293L97.7867 542.602L98.1987 551.254ZM97.7455 541.799L111.383 541.407L111.445 532.838L97.3335 533.147L97.7455 541.799ZM97.3129 532.364L111.465 531.972L111.527 523.403L96.9009 523.712L97.3129 532.364ZM96.8597 522.908L111.527 522.517L111.589 513.947L96.4477 514.256L96.8597 522.908ZM96.4065 513.473L111.589 513.082L111.651 504.512L95.9945 504.821L96.4065 513.473ZM95.9533 504.018L111.651 503.627L111.712 495.057L95.5413 495.366L95.9533 504.018ZM95.0881 485.952L95.5001 494.583L111.712 494.171L111.774 485.952H95.0881ZM111.074 588.623L111.136 580.053L99.5995 580.362L100.012 589.014L111.074 588.623Z" fill="#345901"/>
<path opacity="0.62" d="M192.3 472.314L189.972 469.266L68.9879 470.646L67.2781 475.549L192.3 472.314Z" fill="#345901"/>
<path opacity="0.62" d="M181.114 469.368L177.097 465.949L81.0183 465.784L76.0948 470.646L181.114 469.368Z" fill="#345901"/>
<path opacity="0.62" d="M178.787 469.389L175.82 466.505L81.0183 465.784L165.005 467.02L166.591 469.389H178.787Z" fill="#345901"/>
<path opacity="0.62" d="M190.838 472.17L189.354 469.719L69.6058 471.161L177.736 470.646L178.787 472.17H190.838Z" fill="#345901"/>
<path opacity="0.62" d="M60.1504 586.48L44.8651 587.14V588.643L60.3358 588.128L60.1504 586.48Z" fill="#345901"/>
<path opacity="0.62" d="M56.9162 521.219L41.6309 521.899V523.403L57.1221 522.867L56.9162 521.219Z" fill="#345901"/>
<path opacity="0.62" d="M56.1539 499.548L40.0858 500.207V501.711L56.3393 501.196L56.1539 499.548Z" fill="#345901"/>
<path opacity="0.62" d="M55.0415 480.637L40.0859 477.094L39.9417 477.856L55.2269 482.285L55.0415 480.637Z" fill="#345901"/>
<path opacity="0.62" d="M59.6765 566.313H43.5466V567.631H59.6765V566.313Z" fill="#345901"/>
<path opacity="0.62" d="M58.523 544.992H42.3931V546.31H58.523V544.992Z" fill="#345901"/>
<path opacity="0.62" d="M59.8208 468.957L47.1517 459.068L48.2229 457.647L60.3358 468.215L59.8208 468.957Z" fill="#345901"/>
<path opacity="0.62" d="M63.4669 443.845L71.6658 457.935L72.4692 457.029L65.1355 442.918L63.4669 443.845Z" fill="#345901"/>
<path opacity="0.62" d="M91.5449 437.789L91.0505 452.724H90.4737L89.8763 437.789H91.5449Z" fill="#345901"/>
<path opacity="0.62" d="M105.862 454.392L115.276 440.734L116.306 441.455L107.222 455.093L105.862 454.392Z" fill="#345901"/>
<path opacity="0.62" d="M135.773 457.977L119.891 463.91L120.426 465.207L136.165 459.439L135.773 457.977Z" fill="#345901"/>
<path opacity="0.36" d="M54.6502 501.237L41.2808 501.711L41.3426 502.679L54.6708 501.711L54.6502 501.237Z" fill="#345901"/>
<path opacity="0.36" d="M55.7419 522.908L42.3724 523.382L42.4342 524.804L55.7831 523.918L55.7419 522.908Z" fill="#345901"/>
<path opacity="0.36" d="M56.9573 547.113L43.629 548.494L43.526 546.289H56.9161L56.9573 547.113Z" fill="#345901"/>
<path opacity="0.36" d="M58.008 567.631L58.0492 568.723L44.7003 569.671L44.5973 567.631H58.008Z" fill="#345901"/>
<path opacity="0.36" d="M59.0379 588.17V589.488L45.7509 590.168V588.623L59.0379 588.17Z" fill="#345901"/>
<path opacity="0.36" d="M54.1145 481.955L41.1571 478.206L40.8687 480.081L54.0321 482.882L54.1145 481.955Z" fill="#345901"/>
<path opacity="0.36" d="M58.9143 468.256L48.3259 459.996L47.2546 461.705L58.5023 468.957L58.9143 468.256Z" fill="#345901"/>
<path opacity="0.36" d="M70.883 456.576L69.9354 457.153L62.4164 446.091L64.1468 445.019L70.883 456.576Z" fill="#345901"/>
<path opacity="0.36" d="M90.4325 451.941H89.3819L88.6815 438.571H89.9175L90.4325 451.941Z" fill="#345901"/>
<path opacity="0.36" d="M107.881 454.083L115.421 442.774L116.883 443.515L108.458 454.31L107.881 454.083Z" fill="#345901"/>
<path opacity="0.36" d="M121.497 464.816L134.373 460.099L135.341 461.85L121.992 465.537L121.497 464.816Z" fill="#345901"/>
</g>
<path opacity="0.2" d="M244.769 585.904L247.158 596.616H170.052L245.551 595.565L244.769 585.904Z" fill="#345901"/>
<g opacity="0.62">
<path opacity="0.62" d="M196.07 387.978L198.109 399.905L198.418 399.926L197.388 389.564L207.998 389.543H207.895L208.78 400.07H209.213V389.523L230.101 389.461V400.379H230.513L231.42 389.44H230.781L242.956 389.399L240.958 400.544H241.432L243.739 387.978H196.07Z" fill="#345901"/>
<path opacity="0.62" d="M197.903 342.142L199.799 354.07H200.087L199.119 343.729L208.883 343.687H208.801L209.604 354.235H210.016V343.687L229.236 343.605V354.544H229.607L230.431 343.605H229.854L241.04 343.564L239.227 354.708H239.639L241.782 342.142H197.903Z" fill="#345901"/>
<path opacity="0.62" d="M199.613 294.741L201.344 306.669H201.611L200.726 296.328L209.707 296.286H209.625L210.367 306.834H210.737V296.286L228.433 296.204V307.143H228.762L229.545 296.204H228.989L239.289 296.163L237.621 307.307H238.012L239.969 294.741H199.613Z" fill="#345901"/>
<path opacity="0.62" d="M192.238 437.459L194.628 449.386L194.999 449.407L193.783 439.045L206.143 439.004L206.04 439.025L207.05 449.551H207.565V439.004L231.914 438.942V449.86H232.388L233.439 438.922H232.697L246.891 438.88L244.563 450.025H245.098L247.797 437.459H192.238Z" fill="#345901"/>
<path opacity="0.62" d="M239.804 258.877L239.969 257.888L262.917 596.616H257.685L239.578 261.101V260.339L239.804 258.877Z" fill="#345901"/>
<path opacity="0.62" d="M187.789 495.428L190.57 507.355L191.002 507.376L189.581 497.014L204.001 496.993H203.857L205.052 507.52H205.649V496.973L234.015 496.911V507.829H234.572L235.808 496.89H234.942L251.464 496.849L248.765 507.994H249.404L252.535 495.428H187.789Z" fill="#345901"/>
<path opacity="0.62" d="M251.814 596.554L186.017 596.616L195.988 433.998L205.711 275.336H231.708L238.135 377.966L251.814 596.554Z" fill="#345901"/>
<path opacity="0.55" d="M188.324 594.535L207.956 277.252H230.452L212.138 279.559L206.288 594.535H188.324Z" fill="#345901"/>
<path opacity="0.2" d="M186.017 596.616L242.606 594.123L227.506 277.252H230.452L247.611 596.554L186.017 596.616Z" fill="#345901"/>
<path opacity="0.21" d="M238.136 377.966C225.899 400.729 211.685 419.949 196.008 433.998L205.732 275.336H231.708L238.136 377.966Z" fill="#345901"/>
<path opacity="0.1" d="M186.017 596.616C186.017 596.616 244.48 582.999 244.48 479.669L251.793 596.554L186.017 596.616Z" fill="#345901"/>
<path opacity="0.55" d="M214.94 279.023L209.378 595.586H214.94L216.361 279.023H214.94Z" fill="#345901"/>
<path opacity="0.62" d="M179.466 596.616L183.648 581.578L255.151 584.297L257.685 596.616H179.466Z" fill="#345901"/>
<path opacity="0.62" d="M180.723 595.586L184.349 582.546L253.483 585.162L193.989 584.235L191.476 595.586H180.723Z" fill="#345901"/>
<path opacity="0.31" d="M191.167 512.814L190.941 516.255L247.076 521.054L246.602 512.814H191.167Z" fill="#345901"/>
<g opacity="0.62">
<path opacity="0.62" d="M183.998 507.232L186.45 512.814H251.361L254.245 507.994L183.998 507.232Z" fill="#345901"/>
<path opacity="0.55" d="M185.337 508.179L247.076 508.942L245.634 511.661L187.047 512.32L185.337 508.179Z" fill="#345901"/>
<path opacity="0.62" d="M182.886 493.862L185.997 507.252H187.027L184.884 495.654L201.035 495.613H200.89L202.229 507.417H202.889V495.613L234.695 495.531V507.767H235.293L236.693 495.51H235.705L254.245 495.469L251.217 507.953H251.917L255.44 493.862H182.886Z" fill="#345901"/>
<path opacity="0.62" d="M236.693 495.51L235.293 507.767H235.622L237.023 495.758L253.812 495.716L251.217 507.953L254.245 495.469L236.693 495.51Z" fill="#345901"/>
<path opacity="0.62" d="M202.889 507.417V495.613L234.695 495.531L203.486 495.86L203.198 507.438L202.889 507.417Z" fill="#345901"/>
<path opacity="0.62" d="M187.027 507.252L184.884 495.654L200.89 495.613L185.543 495.943L187.212 507.252H187.027Z" fill="#345901"/>
<path opacity="0.55" d="M186.45 507.046L183.401 494.377L249.362 494.089L248.662 494.892L184.864 495.531L186.45 507.046Z" fill="#345901"/>
</g>
<g opacity="0.62">
<path opacity="0.62" d="M188.984 449.263L191.085 454.845H246.787L249.259 450.025L188.984 449.263Z" fill="#345901"/>
<path opacity="0.55" d="M190.137 450.21L243.121 450.973L241.885 453.692L191.6 454.351L190.137 450.21Z" fill="#345901"/>
<path opacity="0.62" d="M188.036 435.893L190.693 449.283H191.6L189.746 437.686L203.61 437.644H203.486L204.64 449.448H205.196V437.644L232.491 437.562V449.798H233.006L234.201 437.541H233.356L249.259 437.5L246.664 449.984H247.282L250.289 435.893H188.036Z" fill="#345901"/>
<path opacity="0.62" d="M234.201 437.541L233.006 449.798H233.274L234.489 437.768L248.889 437.747L246.664 449.984L249.259 437.5L234.201 437.541Z" fill="#345901"/>
<path opacity="0.62" d="M205.196 449.448V437.644L232.491 437.562L205.711 437.891L205.464 449.469L205.196 449.448Z" fill="#345901"/>
<path opacity="0.62" d="M191.6 449.283L189.746 437.685L203.486 437.644L190.323 437.974L191.744 449.283H191.6Z" fill="#345901"/>
<path opacity="0.55" d="M191.085 449.077L188.469 436.408L245.078 436.12L244.48 436.923L189.725 437.562L191.085 449.077Z" fill="#345901"/>
</g>
<g opacity="0.62">
<path opacity="0.62" d="M193.268 399.781L195.061 405.364H242.874L244.995 400.544L193.268 399.781Z" fill="#345901"/>
<path opacity="0.55" d="M194.257 400.729L239.722 401.491L238.65 404.21L195.514 404.87L194.257 400.729Z" fill="#345901"/>
<path opacity="0.62" d="M192.444 386.412L194.752 399.802H195.514L193.928 388.204L205.814 388.163H205.711L206.7 399.967H207.194V388.163L230.596 388.08V400.317H231.049L232.079 388.06H231.337L244.995 388.019L242.77 400.502H243.285L245.881 386.412H192.444Z" fill="#345901"/>
<path opacity="0.62" d="M232.079 388.06L231.049 400.317H231.276L232.306 388.307L244.666 388.266L242.77 400.502L244.995 388.019L232.079 388.06Z" fill="#345901"/>
<path opacity="0.62" d="M207.194 399.967V388.163L230.596 388.08L207.606 388.41L207.4 399.987L207.194 399.967Z" fill="#345901"/>
<path opacity="0.62" d="M195.514 399.802L193.928 388.204L205.711 388.163L194.422 388.492L195.637 399.802H195.514Z" fill="#345901"/>
<path opacity="0.55" d="M195.061 399.596L192.836 386.927L241.39 386.638L240.875 387.442L193.907 388.08L195.061 399.596Z" fill="#345901"/>
</g>
<g opacity="0.62">
<path opacity="0.62" d="M195.349 353.926L196.997 359.529H240.978L242.935 354.688L195.349 353.926Z" fill="#345901"/>
<path opacity="0.55" d="M196.235 354.873L238.074 355.635L237.105 358.355L197.409 359.034L196.235 354.873Z" fill="#345901"/>
<path opacity="0.62" d="M194.587 340.577L196.688 353.946L197.409 353.967L195.946 342.369L206.885 342.328H206.782L207.688 354.132H208.142V342.307L229.689 342.225V354.482H230.101L231.028 342.225H230.369L242.935 342.183L240.875 354.667H241.349L243.739 340.577H194.587Z" fill="#345901"/>
<path opacity="0.62" d="M231.028 342.225L230.101 354.482H230.307L231.255 342.451L242.626 342.431L240.875 354.667L242.935 342.183L231.028 342.225Z" fill="#345901"/>
<path opacity="0.62" d="M208.142 354.131V342.307L229.689 342.225L208.533 342.575L208.348 354.131H208.142Z" fill="#345901"/>
<path opacity="0.62" d="M197.409 353.967L195.947 342.369L206.782 342.328L196.4 342.657L197.533 353.967H197.409Z" fill="#345901"/>
<path opacity="0.55" d="M196.997 353.74L194.937 341.092L239.619 340.783L239.145 341.586L195.926 342.225L196.997 353.74Z" fill="#345901"/>
</g>
<g opacity="0.62">
<path opacity="0.62" d="M197.244 306.525L198.769 312.128H239.227L241.02 307.287L197.244 306.525Z" fill="#345901"/>
<path opacity="0.55" d="M198.068 307.472L236.57 308.234L235.663 310.974L199.16 311.634L198.068 307.472Z" fill="#345901"/>
<path opacity="0.62" d="M196.544 293.176L198.501 306.545L199.139 306.566L197.8 294.968L207.874 294.927H207.771L208.615 306.731H209.027V294.906L228.845 294.824V307.081H229.216L230.081 294.824H229.483L241.019 294.783L239.145 307.266H239.577L241.782 293.176H196.544Z" fill="#345901"/>
<path opacity="0.62" d="M230.081 294.824L229.216 307.081H229.422L230.287 295.051L240.752 295.03L239.145 307.266L241.019 294.783L230.081 294.824Z" fill="#345901"/>
<path opacity="0.62" d="M209.027 306.731V294.906L228.845 294.824L209.378 295.174L209.213 306.731H209.027Z" fill="#345901"/>
<path opacity="0.62" d="M199.139 306.566L197.8 294.968L207.771 294.927L198.212 295.256L199.263 306.566H199.139Z" fill="#345901"/>
<path opacity="0.55" d="M198.769 306.339L196.873 293.691L237.991 293.382L237.538 294.185L197.78 294.824L198.769 306.339Z" fill="#345901"/>
</g>
<path opacity="0.62" d="M201.179 259.33L202.765 270.31H203.012L202.209 260.792L210.469 260.751H210.387L211.067 270.454H211.417V260.751L227.691 260.689V270.742H228L228.701 260.669L228.206 260.689L237.682 260.648L236.137 270.886H236.508L238.3 259.33H201.179Z" fill="#345901"/>
<g opacity="0.62">
<path opacity="0.62" d="M198.995 270.186L200.396 275.336H237.62L239.268 270.886L198.995 270.186Z" fill="#345901"/>
<path opacity="0.55" d="M199.757 271.051L235.169 271.752L234.345 274.265L200.746 274.883L199.757 271.051Z" fill="#345901"/>
<path opacity="0.62" d="M198.357 257.888L200.149 270.207H200.746L199.51 259.536L208.76 259.495H208.677L209.46 270.351H209.831V259.495L228.062 259.412V270.68H228.412L229.216 259.412H228.659L239.268 259.371L237.538 270.866H237.95L239.969 257.888H198.357Z" fill="#345901"/>
<path opacity="0.62" d="M229.216 259.412L228.412 270.68H228.598L229.401 259.618L239.021 259.597L237.538 270.866L239.269 259.371L229.216 259.412Z" fill="#345901"/>
<path opacity="0.62" d="M209.831 270.351V259.495L228.062 259.412L210.161 259.721L210.016 270.371L209.831 270.351Z" fill="#345901"/>
<path opacity="0.62" d="M200.746 270.206L199.51 259.536L208.677 259.494L199.881 259.803L200.849 270.206H200.746Z" fill="#345901"/>
<path opacity="0.55" d="M200.396 270.001L198.666 258.361L236.487 258.094L236.075 258.835L199.49 259.412L200.396 270.001Z" fill="#345901"/>
</g>
<path opacity="0.31" d="M242.935 454.845H194.71L194.546 457.647L243.471 463.353L242.935 454.845Z" fill="#345901"/>
<path opacity="0.31" d="M197.739 405.364H239.845L240.237 411.544L197.677 406.559L197.739 405.364Z" fill="#345901"/>
<path opacity="0.31" d="M200.561 359.529L200.417 361.918L237.373 365.853L236.982 359.529H200.561Z" fill="#345901"/>
<path opacity="0.31" d="M233.995 312.128H203.465L203.321 314.291L234.324 317.093L233.995 312.128Z" fill="#345901"/>
<path opacity="0.31" d="M205.711 275.336L205.34 281.66L232.306 285.121L231.708 275.336H205.711Z" fill="#345901"/>
</g>
<g opacity="0.62">
<path opacity="0.62" d="M578.511 542.911L594.744 511.413H708.519L725.164 543.9L578.511 542.911Z" fill="#345901"/>
<g opacity="0.62">
<path opacity="0.62" d="M762.491 548.7H542.111L541.019 542.664L763.521 544.147L762.491 548.7Z" fill="#345901"/>
<path opacity="0.62" d="M542.111 543.261H587.555L588.235 548.02H542.811L542.111 543.261Z" fill="#345901"/>
<path opacity="0.62" d="M589.038 543.261H593.9L594.744 548.02H589.532L589.038 543.261Z" fill="#345901"/>
<path opacity="0.37" d="M749.286 544.559L748.236 547.834H762.491L763.398 544.724L749.286 544.559Z" fill="#345901"/>
</g>
<path opacity="0.62" d="M546.931 548.7L554.615 561.08H743.827L751.058 548.7H546.931Z" fill="#345901"/>
<path opacity="0.37" d="M746.773 556.033L549.98 553.603L546.931 548.7H751.058L746.773 556.033Z" fill="#345901"/>
<path opacity="0.53" d="M551.814 554.9L591.901 556.033L594.744 560.298H554.615L551.814 554.9Z" fill="#345901"/>
<path opacity="0.62" d="M562.279 561.08L570.354 595.421H573.279L569.55 561.08H562.279Z" fill="#345901"/>
<path opacity="0.62" d="M735.072 561.08L726.626 595.998H724.113L729.593 561.08H735.072Z" fill="#345901"/>
<path opacity="0.62" d="M576.76 595.441L639.756 561.08H649.005L580.674 595.421L576.76 595.441Z" fill="#345901"/>
<path opacity="0.62" d="M652.281 561.08H662.457L721.95 595.977H718.119L652.281 561.08Z" fill="#345901"/>
<path opacity="0.62" d="M647.295 561.08L649.973 595.709L652.28 595.73L654.237 561.08H647.295Z" fill="#345901"/>
<path opacity="0.62" d="M569.55 561.08L649.973 595.709L649.85 593.999L576.76 561.08H569.55Z" fill="#345901"/>
<path opacity="0.62" d="M729.593 561.08L652.281 595.73L652.363 593.999L724.113 560.298L729.593 561.08Z" fill="#345901"/>
<path opacity="0.53" d="M563.515 562.234H565.183L571.796 595.421L570.642 595.112L563.515 562.234Z" fill="#345901"/>
<path opacity="0.53" d="M640.724 562.234L578.511 595.421L642.64 562.234H640.724Z" fill="#345901"/>
<path opacity="0.62" d="M588.235 517.037L591.902 506.552L711.403 508.097L715.564 517.037H588.235Z" fill="#345901"/>
<path opacity="0.53" d="M590.357 516.151L594.044 507.541L617.363 508.097L615.139 516.151H590.357Z" fill="#345901"/>
<path opacity="0.36" d="M693.295 508.797L695.211 516.152L588.441 516.481L588.235 517.037H712.845L709.487 508.797H693.295Z" fill="#345901"/>
<path opacity="0.37" d="M590.027 520.581L696.571 523.959L717.562 529.088L711.403 517.037H591.86L590.027 520.581Z" fill="#345901"/>
<path opacity="0.62" d="M609.762 524.659H599.194V535.062H609.762V524.659Z" fill="#345901"/>
<path opacity="0.62" d="M704.687 524.659H694.119V535.062H704.687V524.659Z" fill="#345901"/>
<path opacity="0.62" d="M644.205 507.232L649.767 343.358L656.174 342.801L658.646 507.417L644.205 507.232Z" fill="#345901"/>
<path opacity="0.62" d="M647.295 346.86L644.246 365.956H662.622L659.593 346.86H647.295Z" fill="#345901"/>
<path opacity="0.53" d="M645.132 365.482L647.955 347.313H651.003L649.994 365.05L645.132 365.482Z" fill="#345901"/>
<path opacity="0.37" d="M648.655 376.441L656.73 380.664L656.524 365.956H649.005L648.655 376.441Z" fill="#345901"/>
<path opacity="0.62" d="M644.947 504.966L649.438 377.595L651.436 378.996L649.911 504.966H644.947Z" fill="#345901"/>
<path opacity="0.62" d="M662.622 365.956L699.414 507.953L698.075 507.932L660.541 365.956H662.622Z" fill="#345901"/>
<path opacity="0.62" d="M644.246 365.956L604.488 506.717L605.23 506.737L646.245 365.956H644.246Z" fill="#345901"/>
</g>
<g opacity="0.62">
<path opacity="0.62" d="M131.777 543.282L132.724 587.613L393.728 589.22L396.385 543.282H131.777Z" fill="#345901"/>
<path opacity="0.62" d="M306.734 548.906H299.153V560.771H306.734V548.906Z" fill="#345901"/>
<g opacity="0.62">
<path opacity="0.62" d="M404.976 543.282H121.889L120.488 536.401L406.294 538.07L404.976 543.282Z" fill="#345901"/>
<path opacity="0.62" d="M121.889 537.081H180.27L181.135 542.499H122.775L121.889 537.081Z" fill="#345901"/>
<path opacity="0.62" d="M182.165 537.081H188.386L189.498 542.499H182.783L182.165 537.081Z" fill="#345901"/>
<path opacity="0.37" d="M387.981 538.544L386.662 542.293H404.976L406.129 538.75L387.981 538.544Z" fill="#345901"/>
</g>
<path opacity="0.62" d="M373.066 548.906H365.485V560.771H373.066V548.906Z" fill="#345901"/>
<g opacity="0.62">
<path opacity="0.62" d="M395.15 569.712H131.695L130.376 562.811L396.386 564.5L395.15 569.712Z" fill="#345901"/>
<path opacity="0.62" d="M131.695 563.491H186.017L186.821 568.929H132.519L131.695 563.491Z" fill="#345901"/>
<path opacity="0.62" d="M187.789 563.491H193.598L194.628 568.929H188.365L187.789 563.491Z" fill="#345901"/>
<path opacity="0.37" d="M379.349 564.974L378.113 568.723H395.15L396.221 565.159L379.349 564.974Z" fill="#345901"/>
</g>
<path opacity="0.57" d="M131.777 547.422L395.912 551.563L396.385 543.282H131.777V547.422Z" fill="#345901"/>
<path opacity="0.62" d="M145.6 548.906H138.019V560.771H145.6V548.906Z" fill="#345901"/>
<path opacity="0.62" d="M205.278 548.906H197.697V560.771H205.278V548.906Z" fill="#345901"/>
<path opacity="0.62" d="M218.73 548.906H211.149V560.771H218.73V548.906Z" fill="#345901"/>
<path opacity="0.62" d="M343.175 572.74H335.594V584.606H343.175V572.74Z" fill="#345901"/>
<path opacity="0.62" d="M173.987 572.74H166.406V584.606H173.987V572.74Z" fill="#345901"/>
<path opacity="0.57" d="M395.15 569.712H132.333L132.416 573.482L394.511 575.748L395.15 569.712Z" fill="#345901"/>
<g opacity="0.62">
<path opacity="0.62" d="M404.976 594.514H121.889L120.488 587.613L406.294 589.302L404.976 594.514Z" fill="#345901"/>
<path opacity="0.62" d="M121.889 588.293H180.27L181.135 593.731H122.775L121.889 588.293Z" fill="#345901"/>
<path opacity="0.62" d="M182.165 588.293H188.386L189.498 593.731H182.783L182.165 588.293Z" fill="#345901"/>
<path opacity="0.37" d="M387.981 589.776L386.662 593.525H404.976L406.129 589.982L387.981 589.776Z" fill="#345901"/>
</g>
</g>
<path opacity="0.62" d="M774.11 600.715L778.312 593.896L-104.815 592.372V596.616L774.11 600.715Z" fill="#345901"/>
<path opacity="0.62" d="M-128.027 629.967L-129 566L623.151 578.143L999.227 584.215L1187.26 587.251L1312.33 588.796L1373.73 604.69L1443 633L-128.027 629.967Z" fill="#345901"/>
<path opacity="0.62" d="M-171.358 570L661.647 579.959L1078.15 584.939L1286.4 587.429L1391.24 588.803L1480.13 589.762C1488.49 589.852 1495.55 596.01 1496.77 604.283L1501 633L1374.5 629.5L-166.624 571.885L-175 625.918L-171.358 570Z" fill="#345901"/>
<path opacity="0.15" d="M-129 565.551C-129 565.551 148.546 643.032 828.247 633V626.5L-129 565.551Z" fill="#345901"/>
<path opacity="0.14" d="M-117.999 577.416L-122.367 630.05L429.779 629.947L199.613 621.253L197.677 595.586L39.3855 590.168L36.5839 620.841L-35.6402 621.253L-35.4342 581.578L-117.999 577.416Z" fill="#345901"/>
<path opacity="0.14" d="M566.584 631.347L576.76 606.957L694.119 612.066L699.414 630.503L566.584 631.347Z" fill="#345901"/>
</g>
<g opacity="0.45">
<path opacity="0.3" d="M171.698 232.013L183.155 189.902C183.155 189.902 207.11 193.986 229.575 181.059C252.039 168.131 255.511 140.214 255.511 140.214C255.511 140.214 268.439 154.51 288.841 154.51C309.243 154.51 312.388 130.35 312.388 130.35C312.388 130.35 333.913 138.437 345.268 130.248C358.787 120.506 342.245 92.2215 342.245 92.2215C342.245 92.2215 367.671 94.2637 388.318 85.0736C408.965 75.8836 419.176 38.4494 395.343 27.5438C380.541 20.7834 320.185 11.7961 276.568 5.95554C245.466 1.79081 213.99 3.68105 183.155 9.50001C170.493 11.8894 171.698 53.0718 171.698 53.0718C171.698 53.0718 155.544 52.3366 146.292 61.5879C137.041 70.8392 143.923 88.4433 143.923 88.4433C143.923 88.4433 133.243 88.137 131.65 96.9799C130.343 104.332 140.778 110.602 140.778 110.602C140.778 110.602 124.665 117.055 119.927 131.698C115.189 146.341 125.053 156.552 125.053 156.552C125.053 156.552 112.085 168.928 117.191 181.283C122.296 193.639 148.804 191.27 148.804 191.27L153.277 232.38L171.698 232.013Z" fill="#82B633"/>
<mask id="mask0_1_2324" style="mask-type:alpha" maskUnits="userSpaceOnUse" x="116" y="20" width="294" height="213">
<path d="M171.698 232.013L183.155 189.902C183.155 189.902 207.11 193.986 229.575 181.059C252.039 168.131 255.511 140.214 255.511 140.214C255.511 140.214 268.439 154.51 288.841 154.51C309.243 154.51 312.388 130.35 312.388 130.35C312.388 130.35 333.913 138.437 345.268 130.248C358.787 120.506 342.245 92.2214 342.245 92.2214C342.245 92.2214 367.671 94.2636 388.318 85.0736C408.965 75.8835 419.176 38.4493 395.343 27.5438C371.51 16.6587 226.654 21.0903 226.654 21.0903C226.654 21.0903 190.201 20.0488 177.539 22.4382C164.877 24.8276 171.698 53.0717 171.698 53.0717C171.698 53.0717 155.544 52.3365 146.292 61.5879C137.041 70.8392 143.923 88.4433 143.923 88.4433C143.923 88.4433 133.243 88.1369 131.65 96.9798C130.343 104.332 140.778 110.602 140.778 110.602C140.778 110.602 124.665 117.055 119.927 131.698C115.189 146.341 125.053 156.552 125.053 156.552C125.053 156.552 112.085 168.928 117.191 181.283C122.296 193.639 148.804 191.27 148.804 191.27L153.277 232.38L171.698 232.013Z" fill="#82B633"/>
</mask>
<g mask="url(#mask0_1_2324)">
</g>
<mask id="mask1_1_2324" style="mask-type:alpha" maskUnits="userSpaceOnUse" x="131" y="9" width="361" height="224">
<path d="M152.889 231.686L151.235 185.041C151.235 185.041 131.67 173.053 131.67 152.12C131.67 131.187 152.154 131.187 152.154 131.187C152.154 131.187 139.247 98.3889 154.441 83.1947C169.635 68.0005 192.386 78.0891 192.386 78.0891C192.386 78.0891 196.981 19.0276 257.186 10.1847C317.391 1.34184 333.178 44.9028 333.178 44.9028C333.178 44.9028 350.986 9.00023 388.318 9.00023C425.63 9.00023 435.044 17.6797 435.044 17.6797C435.044 17.6797 477.931 1.34184 490.246 27.217C502.561 53.0921 440.64 56.4822 440.64 56.4822C440.64 56.4822 439.496 90.3425 397.835 106.68C359.584 121.691 335.975 103.168 335.975 103.168C335.975 103.168 332.034 120.506 319.147 125.224C307.139 129.635 287.656 120.343 287.656 120.343C287.656 120.343 289.045 138.172 262.026 153.815C235.007 169.479 205.905 155.184 205.905 155.184C205.905 155.184 214.34 164.047 210.46 178.281C205.905 195.028 174.128 202.461 174.128 202.461L171.698 232.012L152.889 231.686Z" fill="#82B633"/>
</mask>
<g mask="url(#mask1_1_2324)">
<path opacity="0.2" d="M152.889 231.686L151.235 185.041C151.235 185.041 131.67 173.053 131.67 152.12C131.67 131.187 152.154 131.187 152.154 131.187C152.154 131.187 139.247 98.3889 154.441 83.1947C169.635 68.0005 192.386 78.0891 192.386 78.0891C192.386 78.0891 196.981 19.0276 257.186 10.1847C317.391 1.34184 333.178 44.9028 333.178 44.9028C333.178 44.9028 350.986 9.00023 388.318 9.00023C425.63 9.00023 435.044 17.6797 435.044 17.6797C435.044 17.6797 477.931 1.34184 490.246 27.217C502.561 53.0921 440.64 56.4822 440.64 56.4822C440.64 56.4822 439.496 90.3425 397.835 106.68C359.584 121.691 335.975 103.168 335.975 103.168C335.975 103.168 332.034 120.506 319.147 125.224C307.139 129.635 287.656 120.343 287.656 120.343C287.656 120.343 289.045 138.172 262.026 153.815C235.007 169.479 205.905 155.184 205.905 155.184C205.905 155.184 214.34 164.047 210.46 178.281C205.905 195.028 174.128 202.461 174.128 202.461L171.698 232.012L152.889 231.686Z" fill="#82B633"/>
</g>
<mask id="mask2_1_2324" style="mask-type:alpha" maskUnits="userSpaceOnUse" x="143" y="31" width="264" height="202">
<path d="M154.849 231.768C154.849 231.768 156.299 204.422 156.299 198.561C156.299 192.7 157.913 179.793 157.913 179.793C157.913 179.793 138.552 157.981 144.699 146.239C150.867 134.496 166.184 139.601 166.184 139.601C166.184 139.601 161.997 123.018 171.371 117.382C180.745 111.766 188.648 117.382 188.648 117.382C188.648 117.382 178.682 73.9843 213.155 54.583C247.628 35.1818 270.848 58.4225 270.848 58.4225C270.848 58.4225 274.749 37.0402 285.389 34.3445C297.643 31.2403 307.752 52.0507 307.752 52.0507C307.752 52.0507 315.9 29.7494 342.633 31.322C369.366 32.8945 369.631 49.4979 369.631 49.4979C369.631 49.4979 395.813 38.0205 404.799 51.0296C413.785 64.059 373.45 63.283 373.45 63.283C373.45 63.283 370.346 82.1328 348.903 86.2173C327.459 90.3018 309.631 76.047 309.631 76.047C309.631 76.047 309.283 97.3271 296.274 97.3271C283.265 97.3271 269.807 85.237 269.807 85.237C269.807 85.237 285.369 106.517 269.582 126.286C255.409 144.013 216.974 134.761 216.974 134.761C216.974 134.761 219.262 141.909 212.89 144.972C206.518 148.036 199.37 146.504 199.37 146.504C199.37 146.504 217.138 161.617 205.905 175.933C194.673 190.249 171.351 186.593 171.351 186.593C171.351 186.593 167.961 199.521 167.961 206.975C167.961 214.429 167.715 232.38 167.715 232.38L154.849 231.768Z" fill="#82B633"/>
</mask>
<g mask="url(#mask2_1_2324)">
<path opacity="0.1" d="M154.849 231.768C154.849 231.768 156.299 204.422 156.299 198.561C156.299 192.7 157.913 179.793 157.913 179.793C157.913 179.793 138.552 157.981 144.699 146.239C150.867 134.496 166.184 139.601 166.184 139.601C166.184 139.601 161.997 123.018 171.371 117.382C180.745 111.766 188.648 117.382 188.648 117.382C188.648 117.382 178.682 73.9843 213.155 54.583C247.628 35.1818 270.848 58.4225 270.848 58.4225C270.848 58.4225 274.749 37.0402 285.389 34.3445C297.643 31.2403 307.752 52.0507 307.752 52.0507C307.752 52.0507 315.9 29.7494 342.633 31.322C369.366 32.8945 369.631 49.4979 369.631 49.4979C369.631 49.4979 395.813 38.0205 404.799 51.0296C413.785 64.059 373.45 63.283 373.45 63.283C373.45 63.283 370.346 82.1328 348.903 86.2173C327.459 90.3018 309.631 76.047 309.631 76.047C309.631 76.047 309.283 97.3271 296.274 97.3271C283.265 97.3271 269.807 85.237 269.807 85.237C269.807 85.237 285.369 106.517 269.582 126.286C255.409 144.013 216.974 134.761 216.974 134.761C216.974 134.761 219.262 141.909 212.89 144.972C206.518 148.036 199.37 146.504 199.37 146.504C199.37 146.504 217.138 161.617 205.905 175.933C194.673 190.249 171.351 186.593 171.351 186.593C171.351 186.593 167.961 199.521 167.961 206.975C167.961 214.429 167.715 232.38 167.715 232.38L154.849 231.768Z" fill="#82B633"/>
</g>
</g>
<g opacity="0.45">
<mask id="mask3_1_2324" style="mask-type:alpha" maskUnits="userSpaceOnUse" x="554" y="140" width="185" height="135">
<path d="M589.085 274.149L596.302 247.622C596.302 247.622 611.392 250.195 625.543 242.052C639.694 233.909 641.88 216.323 641.88 216.323C641.88 216.323 650.024 225.328 662.875 225.328C675.727 225.328 677.708 210.11 677.708 210.11C677.708 210.11 691.267 215.204 698.419 210.045C706.936 203.909 696.516 186.092 696.516 186.092C696.516 186.092 712.532 187.378 725.538 181.589C738.544 175.8 744.976 152.22 729.963 145.35C714.95 138.494 623.703 141.285 623.703 141.285C623.703 141.285 600.74 140.629 592.764 142.134C584.788 143.639 589.085 161.431 589.085 161.431C589.085 161.431 578.909 160.968 573.082 166.795C567.254 172.623 571.589 183.712 571.589 183.712C571.589 183.712 564.861 183.519 563.858 189.089C563.035 193.72 569.608 197.67 569.608 197.67C569.608 197.67 559.458 201.735 556.474 210.959C553.489 220.182 559.703 226.615 559.703 226.615C559.703 226.615 551.534 234.41 554.75 242.193C557.966 249.976 574.664 248.484 574.664 248.484L577.481 274.38L589.085 274.149Z" fill="#82B633"/>
</mask>
<g mask="url(#mask3_1_2324)">
</g>
<mask id="mask4_1_2324" style="mask-type:alpha" maskUnits="userSpaceOnUse" x="563" y="133" width="228" height="142">
<path d="M577.237 273.943L576.195 244.56C576.195 244.56 563.871 237.009 563.871 223.823C563.871 210.637 576.774 210.637 576.774 210.637C576.774 210.637 568.644 189.977 578.215 180.406C587.786 170.835 602.117 177.19 602.117 177.19C602.117 177.19 605.011 139.986 642.935 134.415C680.86 128.845 690.804 156.285 690.804 156.285C690.804 156.285 702.022 133.669 725.538 133.669C749.041 133.669 754.971 139.137 754.971 139.137C754.971 139.137 781.987 128.845 789.744 145.144C797.501 161.444 758.496 163.579 758.496 163.579C758.496 163.579 757.776 184.908 731.532 195.2C707.437 204.655 692.566 192.987 692.566 192.987C692.566 192.987 690.083 203.909 681.966 206.881C674.402 209.659 662.129 203.806 662.129 203.806C662.129 203.806 663.004 215.037 645.984 224.891C628.965 234.758 610.633 225.753 610.633 225.753C610.633 225.753 615.946 231.336 613.502 240.302C610.633 250.851 590.616 255.534 590.616 255.534L589.085 274.148L577.237 273.943Z" fill="#82B633"/>
</mask>
<g mask="url(#mask4_1_2324)">
<path opacity="0.3" d="M577.237 273.943L576.195 244.56C576.195 244.56 563.871 237.009 563.871 223.823C563.871 210.637 576.774 210.637 576.774 210.637C576.774 210.637 568.644 189.977 578.215 180.406C587.786 170.835 602.117 177.19 602.117 177.19C602.117 177.19 605.011 139.986 642.935 134.415C680.86 128.845 690.804 156.285 690.804 156.285C690.804 156.285 702.022 133.669 725.538 133.669C749.041 133.669 754.971 139.137 754.971 139.137C754.971 139.137 781.987 128.845 789.744 145.144C797.501 161.444 758.496 163.579 758.496 163.579C758.496 163.579 757.776 184.908 731.532 195.2C707.437 204.655 692.566 192.987 692.566 192.987C692.566 192.987 690.083 203.909 681.966 206.881C674.402 209.659 662.129 203.806 662.129 203.806C662.129 203.806 663.004 215.037 645.984 224.891C628.965 234.758 610.633 225.753 610.633 225.753C610.633 225.753 615.946 231.336 613.502 240.302C610.633 250.851 590.616 255.534 590.616 255.534L589.085 274.148L577.237 273.943Z" fill="#82B633"/>
</g>
<mask id="mask5_1_2324" style="mask-type:alpha" maskUnits="userSpaceOnUse" x="571" y="147" width="166" height="128">
<path d="M578.472 273.994C578.472 273.994 579.385 256.769 579.385 253.077C579.385 249.385 580.402 241.254 580.402 241.254C580.402 241.254 568.206 227.515 572.078 220.118C575.963 212.721 585.612 215.937 585.612 215.937C585.612 215.937 582.974 205.491 588.879 201.941C594.784 198.403 599.762 201.941 599.762 201.941C599.762 201.941 593.485 174.604 615.2 162.383C636.915 150.161 651.542 164.801 651.542 164.801C651.542 164.801 653.999 151.332 660.701 149.634C668.42 147.679 674.788 160.787 674.788 160.787C674.788 160.787 679.92 146.74 696.76 147.73C713.599 148.721 713.767 159.179 713.767 159.179C713.767 159.179 730.259 151.95 735.919 160.144C741.58 168.352 716.172 167.863 716.172 167.863C716.172 167.863 714.217 179.737 700.709 182.31C687.202 184.882 675.971 175.903 675.971 175.903C675.971 175.903 675.752 189.308 667.558 189.308C659.363 189.308 650.886 181.692 650.886 181.692C650.886 181.692 660.688 195.097 650.744 207.55C641.816 218.716 617.605 212.888 617.605 212.888C617.605 212.888 619.046 217.391 615.032 219.32C611.019 221.25 606.516 220.285 606.516 220.285C606.516 220.285 617.708 229.805 610.633 238.823C603.557 247.841 588.866 245.538 588.866 245.538C588.866 245.538 586.731 253.681 586.731 258.377C586.731 263.072 586.576 274.38 586.576 274.38L578.472 273.994Z" fill="#82B633"/>
</mask>
<g mask="url(#mask5_1_2324)">
<path opacity="0.35" d="M582.463 283.221C582.463 283.221 580.582 266.074 579.985 262.431C579.389 258.787 579.079 250.599 579.079 250.599C579.079 250.599 564.824 239.011 567.451 231.085C570.09 223.158 580.131 224.773 580.131 224.773C580.131 224.773 575.841 214.89 581.095 210.433C586.35 205.988 591.835 208.675 591.835 208.675C591.835 208.675 581.224 182.711 600.68 167.142C620.135 151.574 636.935 163.659 636.935 163.659C636.935 163.659 637.184 149.97 643.524 147.211C650.825 144.035 659.227 155.943 659.227 155.943C659.227 155.943 662.023 141.25 678.802 139.508C695.58 137.765 697.435 148.059 697.435 148.059C697.435 148.059 712.542 138.261 719.452 145.433C726.364 152.619 701.211 156.24 701.211 156.24C701.211 156.24 701.2 168.274 688.285 172.995C675.37 177.716 662.837 170.669 662.837 170.669C662.837 170.669 664.786 183.933 656.699 185.256C648.612 186.58 639.016 180.434 639.016 180.434C639.016 180.434 650.855 192.079 643.053 205.975C636.046 218.436 611.212 216.596 611.212 216.596C611.212 216.596 613.361 220.807 609.712 223.36C606.063 225.912 601.463 225.687 601.463 225.687C601.463 225.687 614.046 233.274 608.52 243.317C602.994 253.359 588.124 253.46 588.124 253.46C588.124 253.46 587.332 261.841 588.091 266.475C588.849 271.108 590.523 282.293 590.523 282.293L582.463 283.221Z" fill="#82B633"/>
</g>
</g>
</svg>
