<svg width="582" height="647" viewBox="0 0 582 647" fill="none" xmlns="http://www.w3.org/2000/svg">
<g clipPath="url(#clip0_1_2807)">
<path d="M306.072 171.527C304.285 170.138 302.499 168.351 300.712 166.763C300.911 166.961 300.911 167.16 301.109 167.16C302.697 168.748 304.285 170.138 306.072 171.527Z" fill="#A8E34B"/>
<path d="M361.053 190.189C360.259 189.792 359.465 189.593 358.87 189.395C360.458 189.792 361.847 190.388 363.237 191.182C362.443 190.785 361.847 190.388 361.053 190.189Z" fill="#A8E34B"/>
<path d="M0.793945 165.572C3.57281 170.336 4.36676 176.094 9.32898 179.866C12.3063 182.049 9.13049 186.417 11.3139 189.395C11.7109 191.976 12.3063 194.557 15.2837 195.152C18.0626 195.549 18.0626 192.77 19.2535 190.983C20.8414 192.968 20.4445 194.954 20.8415 196.74C22.2309 203.292 25.2082 205.079 31.3614 203.292C32.1554 203.093 33.9418 202.696 33.9418 202.895C36.3237 209.049 45.0573 206.071 47.4391 213.02C49.6225 218.975 53.5923 219.77 60.5395 217.586C63.3183 216.593 65.7002 216.196 67.4866 218.975C67.8835 219.571 68.6775 220.365 69.0745 220.365C76.2201 219.571 80.5869 227.512 87.931 226.122C90.9084 225.527 93.0918 227.314 94.8782 230.093C98.848 236.049 101.825 235.85 108.971 235.85C115.124 235.652 121.476 236.247 127.629 236.247C131.599 236.247 135.767 238.63 140.134 238.034C142.516 237.637 143.905 239.424 145.493 241.21C148.272 244.585 151.448 245.975 155.815 243.99C157.204 243.196 158.792 242.6 159.586 244.188C161.769 247.96 164.151 246.968 167.327 245.38C173.282 242.6 179.236 244.983 184.993 246.372C187.375 246.968 189.558 248.953 192.337 248.953C193.925 248.953 195.116 249.35 195.91 250.938C198.49 256.497 203.452 256.696 208.216 255.504C214.171 253.718 219.728 253.519 225.683 255.703C229.256 257.093 233.027 255.703 236.799 255.107C237.394 255.504 238.188 255.902 238.783 256.299C238.982 260.468 241.761 262.056 245.532 262.453C250.296 263.048 254.663 261.659 258.831 259.475C262.602 257.688 266.374 257.093 270.145 259.276C272.527 260.468 275.306 260.865 278.084 260.071C279.474 259.674 280.863 259.674 281.856 261.063C284.833 265.828 289.597 265.431 293.765 264.041C298.529 262.453 302.697 262.453 307.263 264.041C312.026 265.431 316.592 264.835 320.76 262.453C331.081 267.218 341.998 269.798 352.121 274.762C363.237 288.46 369.787 303.349 365.619 321.812C360.061 346.43 348.548 367.672 331.677 386.135C325.921 392.29 319.966 398.245 316.195 405.988C315.996 406.584 315.599 407.378 315.401 407.973C313.614 414.326 314.011 420.878 315.004 427.23C315.798 432.789 315.798 438.149 313.217 443.113C307.263 454.826 307.659 466.936 310.041 479.245C310.041 486.59 310.041 493.737 310.24 500.884C308.056 513.193 305.873 525.7 303.888 538.009C302.896 543.567 299.72 547.935 297.933 552.7C293.567 564.016 283.841 566.795 274.512 570.567C267.168 573.545 260.22 577.516 254.266 582.876C248.112 588.037 241.364 590.817 233.027 590.42C219.331 589.824 206.231 593.199 194.322 599.949C185.39 605.111 175.465 606.5 165.739 609.081C159.387 610.868 153.433 613.052 147.677 616.03C146.287 616.625 144.501 617.221 144.898 618.809C145.493 620.794 147.478 619.802 148.867 619.603C165.144 619.206 181.42 618.611 197.696 616.427C210.399 614.839 223.103 616.228 235.806 617.022C246.723 617.618 257.045 616.824 266.572 611.067C271.534 607.89 276.894 605.508 282.65 603.721C286.024 602.728 289.994 601.339 292.177 605.508C294.559 609.677 293.567 613.647 290.391 617.022C287.81 619.802 284.436 621.589 280.665 622.581C271.733 624.964 263.198 628.339 255.655 634.096C250.891 637.669 244.937 638.066 239.18 638.86C236.997 639.258 234.417 638.86 232.63 640.647C232.829 641.044 232.829 641.64 233.027 641.64C246.128 645.809 259.426 650.177 273.122 643.824C278.68 641.243 284.436 639.059 289.597 635.684C299.918 629.133 310.438 627.346 322.546 629.331C336.441 631.515 350.732 632.508 364.825 629.133C369.191 628.14 373.36 628.537 377.726 629.53C387.055 631.316 396.186 630.522 405.118 626.949C405.912 626.552 406.904 626.353 407.698 626.155C418.417 622.383 419.608 622.78 425.761 631.912C433.105 642.831 435.686 643.625 447.396 638.066C454.344 634.89 460.894 631.316 465.459 624.964C469.429 620 474.391 618.611 480.346 619.603C490.27 621.191 499.401 624.765 508.928 627.743C520.838 631.515 532.747 635.287 545.451 636.875C547.038 637.074 549.222 638.066 550.413 636.28C551.802 634.493 549.817 633.103 549.023 631.515C545.451 625.559 541.084 620.596 534.732 617.419C527.785 614.044 524.212 606.898 519.25 601.339C518.059 600.148 517.066 597.368 518.456 595.979C520.044 594.192 522.227 596.177 523.815 596.971C536.915 604.118 550.611 609.28 564.903 612.655C576.216 615.236 587.729 616.824 599.241 617.022C616.311 617.221 633.183 620.199 650.055 621.192C658.788 621.787 667.323 621.589 675.858 620C677.645 619.603 680.424 619.405 680.225 616.824C680.027 614.839 677.843 614.442 676.057 614.044C658.59 610.074 641.718 604.714 625.244 597.765C620.877 595.78 615.914 595.383 611.151 594.986C600.035 594.192 590.111 590.221 580.782 584.662C580.186 584.464 579.591 583.868 578.797 583.67C553.589 572.552 538.106 552.303 527.586 527.487C522.624 515.575 520.044 503.068 517.265 490.759C510.715 461.973 502.974 433.583 493.446 405.591C488.087 390.106 480.147 375.812 473.002 361.121C472.803 360.525 472.406 359.731 472.208 359.136C461.886 338.29 462.68 333.129 478.758 316.452C490.667 304.144 499.996 290.048 508.928 275.754C512.898 269.6 517.662 265.431 524.212 263.048C529.571 261.063 534.732 259.276 539.893 257.291C542.473 256.299 544.855 256.299 547.237 257.093C553.787 260.071 560.337 260.468 566.887 256.894C568.872 255.902 571.056 255.306 573.041 256.1C581.774 260.071 588.126 255.107 594.081 250.343C597.455 247.762 599.638 247.365 602.814 249.549C604.402 250.74 605.99 251.534 607.578 252.328C610.158 253.519 612.342 252.924 612.739 249.747C613.136 246.174 614.922 246.174 617.502 247.166C620.877 248.357 624.053 248.953 627.427 247.166C629.809 245.578 631.794 243.791 630.801 240.615C629.61 236.446 631.794 235.85 635.168 236.843C638.344 238.034 641.718 238.233 645.093 238.431C648.268 238.431 651.246 237.637 652.834 234.659C657.994 232.674 662.361 235.85 667.125 236.644C670.896 237.637 675.065 240.019 677.843 234.659C679.034 233.865 680.622 233.468 682.012 233.468C683.6 233.468 685.783 234.064 686.775 233.468C692.333 228.902 698.089 232.475 703.647 231.88C710.594 231.086 717.144 235.255 724.092 232.674C725.084 232.277 726.275 232.872 726.87 233.865C729.848 237.637 733.222 237.24 736.795 234.858C739.574 233.071 742.353 233.666 745.131 234.659C747.315 235.453 749.101 235.453 750.689 233.269C753.865 228.902 760.614 228.902 763.79 233.666C764.98 235.85 766.767 236.049 768.355 235.453C773.714 233.269 778.875 231.681 784.829 233.269C785.028 233.269 785.623 233.269 785.822 233.071C788.998 227.115 797.136 229.497 800.709 223.939C804.48 219.77 807.06 214.608 812.618 212.027C815.595 210.836 814.801 207.262 814.603 204.284C814.801 202.299 814.206 200.512 813.412 198.726C813.015 197.733 812.221 196.145 812.618 195.549C818.97 188.799 811.427 187.608 808.45 184.63C807.06 183.439 806.663 182.248 807.854 180.461C812.42 173.314 811.427 171.329 803.091 169.741C801.106 168.55 797.93 168.748 800.312 164.579C801.503 162.395 800.312 158.822 800.907 155.844C801.106 153.859 798.525 153.064 796.54 152.667C792.174 152.072 788.402 153.263 784.433 154.653C782.646 155.248 780.661 156.638 779.47 153.66C780.661 152.072 781.852 150.285 780.463 148.498C779.073 146.712 777.287 147.109 775.5 147.704C773.714 148.3 772.126 148.3 770.34 147.307C770.935 146.116 771.531 144.925 771.928 143.734C773.516 138.175 771.729 135.594 765.973 135.396C763.194 135.197 760.217 135.991 759.621 132.219C761.408 128.447 759.621 126.66 757.239 123.682C753.865 119.116 749.895 116.337 746.124 112.962C742.353 109.388 740.368 104.425 734.215 103.234C732.031 102.837 731.833 100.653 732.031 98.4695C732.627 91.124 730.642 89.5357 722.901 90.9254C722.702 91.124 722.305 91.124 721.908 91.124C715.556 93.5063 714.961 93.7048 712.778 88.3446C712.579 87.9475 712.381 87.3519 712.182 86.7564C710.396 85.3667 708.212 85.3667 706.029 85.9623C701.861 87.5505 699.677 85.9623 699.082 81.5947C698.486 80.0064 697.097 79.0138 695.509 78.8153C691.936 78.4182 688.76 77.6241 686.775 74.2492C686.577 73.8521 685.386 73.2565 684.989 73.4551C679.828 75.2418 676.851 70.0801 672.286 69.286C669.308 68.8889 669.308 66.1095 670.102 63.7272C670.499 61.5434 672.286 59.1611 669.308 57.5729C666.926 55.9847 664.148 56.3817 661.766 57.9699C660.773 58.5655 659.781 59.3596 658.59 60.1537C656.605 61.5434 655.017 61.3449 654.223 58.764C653.826 57.7714 653.628 55.9847 653.032 55.7861C647.474 54.992 643.505 51.4185 638.741 48.8377C634.573 48.0436 629.015 49.0362 628.618 41.8892C628.618 39.7054 626.236 40.301 624.648 40.8966C622.465 41.6907 620.083 41.8892 617.502 42.0878C612.143 42.8819 610.158 40.1025 606.387 36.9261C601.623 32.757 597.256 28.3894 592.691 23.8233C588.721 20.0512 583.362 23.0291 579.194 25.4115C576.812 26.6026 574.43 28.3894 572.048 25.4115C570.659 24.2203 569.071 24.0218 567.483 24.4188C564.704 25.4115 562.719 24.8159 561.131 22.235C559.543 19.6542 557.161 20.4483 554.978 21.2424C550.81 22.6321 547.634 23.0292 547.038 17.0733C546.443 12.9043 543.267 12.9043 540.091 14.691C537.312 16.2792 536.122 16.2792 534.732 12.9043C532.946 8.53667 529.77 8.53667 527.388 12.5072C525.999 14.691 524.808 15.4851 522.624 14.4925C520.838 8.73519 518.059 8.13961 511.906 12.3087C509.127 14.4925 506.15 11.5146 503.172 12.5072C501.783 13.1028 499.996 12.3087 498.607 13.3013C497.217 14.4925 495.431 14.4925 493.645 14.294C493.049 14.294 492.652 13.1028 491.66 13.3013C489.675 10.919 487.094 10.1249 484.316 11.5146C479.75 13.4998 476.574 10.1249 472.803 9.33078V9.13225C470.024 3.37496 468.833 2.97791 464.268 5.95581C463.077 8.73519 461.291 9.5293 458.909 7.14698C456.13 4.16907 453.351 4.3676 450.771 7.54403C449.977 8.33814 449.381 9.92636 447.793 9.13225C444.022 7.3455 441.045 8.53667 438.067 11.1175C437.075 12.1102 435.686 12.3087 434.693 11.1175C430.922 5.95581 427.151 6.94845 423.776 11.316C421.99 10.7205 422.387 9.5293 422.188 8.53667C420.997 4.96318 419.211 3.57349 416.035 6.74992C414.844 7.94109 413.852 9.33078 412.462 6.94845C409.088 0.794107 402.736 -0.595583 397.774 3.97054C396.98 4.56612 396.186 5.75729 395.194 5.36023C390.43 2.97791 384.277 5.55876 380.108 1.19116C379.314 0.198525 378.123 -0.397056 376.734 0.59558C370.581 3.77201 364.031 6.15434 356.687 4.96318C353.114 4.3676 350.136 6.55139 346.762 6.94845C339.616 1.58822 333.86 4.76465 328.699 10.3234C325.722 12.3087 323.142 10.5219 320.76 9.33078C319.569 8.93372 318.378 7.54403 317.385 7.74256C312.225 9.33078 306.866 8.13961 301.903 9.92636C299.124 10.7205 297.14 10.919 294.956 9.33078C289.597 4.96318 287.215 5.16171 283.444 10.7205C282.253 12.3087 281.459 13.4998 279.275 13.4998C277.092 13.3013 275.504 14.294 274.313 16.0807C272.725 18.463 270.74 18.6616 268.358 17.6689C265.58 16.0807 263.396 17.4704 261.808 19.4557C259.823 21.4409 258.235 21.838 256.251 19.8527C254.464 20.0512 252.876 20.4483 251.685 21.2424C251.884 20.4483 252.082 19.4557 250.891 18.8601C247.716 19.4557 246.922 23.6247 243.15 23.2277C237.791 19.0586 233.821 19.2571 229.256 24.2203C228.263 25.4115 228.065 26.8012 228.065 28.1909C228.263 30.9702 227.47 32.5585 224.492 33.154C220.721 33.7496 218.736 36.1319 217.347 39.5069C215.56 39.904 213.575 40.1025 211.789 41.0951C209.208 42.2863 207.224 41.6907 205.437 39.5069C203.452 38.1172 201.269 38.3157 199.085 38.5143C194.322 40.4995 190.749 45.2642 184.993 45.0657C178.244 45.8598 171.297 41.8892 164.747 46.2568C163.556 47.2495 162.365 47.6465 160.777 47.0509C158.99 46.0583 156.807 44.8671 155.021 46.8524C153.036 49.2347 155.021 51.22 156.212 53.2053C156.41 53.6023 156.807 53.9994 157.006 54.595C154.425 57.1758 152.837 53.2053 150.455 53.4038C143.508 51.0215 141.92 52.4112 141.92 59.9552C141.523 62.139 140.134 62.7346 138.149 61.9405C133.584 60.1537 130.805 61.9405 129.614 66.3081C128.82 68.6904 127.034 69.286 124.652 69.4845C116.712 70.0801 116.514 70.2786 115.918 78.2197C111.75 77.2271 107.383 74.8447 104.009 80.205C103.016 81.9917 101.627 80.4035 100.634 79.6094C95.2751 75.4403 91.5038 76.433 89.7175 82.5873C88.725 86.5578 86.9386 88.1461 82.5718 87.1534C77.4111 85.9623 66.8911 93.5063 65.3032 98.668C63.5168 100.058 61.1349 101.05 59.7455 102.837C55.1802 108.197 49.6225 110.183 42.6754 109.587C38.7055 109.19 35.7281 110.977 34.3387 114.947C33.7432 116.932 32.9493 118.322 30.9644 118.719C25.2082 120.109 23.2233 124.278 23.2233 129.638C23.4218 133.212 22.0324 135.396 18.261 135.793C16.4747 136.19 14.6882 136.785 13.6958 138.373C12.1079 140.954 9.92444 141.55 7.14563 141.947C1.78638 142.741 0.595459 145.123 1.58789 150.682C2.3819 154.256 2.97736 157.631 0.595459 161.006C-0.198486 162.197 -0.198547 163.983 0.793945 165.572Z" fill="#A8E34B"/>
</g>
<defs>
<clipPath id="clip0_1_2807">
<rect width="815" height="647" fill="white" transform="matrix(-1 0 0 1 815 0)"/>
</clipPath>
</defs>
</svg>
